<svg width="113" height="30" viewBox="0 0 113 30" fill="none" xmlns="http://www.w3.org/2000/svg">
<rect width="113" height="30" rx="15" fill="#A2AEBE"/>
<path d="M27.489 13.929C27.489 15.385 26.9127 16.3253 25.76 16.75L28.061 20H25.565L23.55 17.101H22.146V20H20.118V10.913H23.563C24.9757 10.913 25.981 11.1513 26.579 11.628C27.1857 12.1047 27.489 12.8717 27.489 13.929ZM23.628 15.346C24.3213 15.346 24.7937 15.2333 25.045 15.008C25.2963 14.7827 25.422 14.4273 25.422 13.942C25.422 13.448 25.292 13.11 25.032 12.928C24.772 12.746 24.317 12.655 23.667 12.655H22.146V15.346H23.628ZM35.4263 18.986C34.6376 19.7313 33.7103 20.104 32.6443 20.104C31.587 20.104 30.7116 19.779 30.0183 19.129C29.325 18.4703 28.9783 17.5907 28.9783 16.49C28.9783 15.3893 29.3293 14.514 30.0313 13.864C30.742 13.214 31.5783 12.889 32.5403 12.889C33.5023 12.889 34.317 13.1793 34.9843 13.76C35.6603 14.3407 35.9983 15.138 35.9983 16.152V17.192H30.9023C30.963 17.5733 31.1623 17.8853 31.5003 18.128C31.8383 18.3707 32.2196 18.492 32.6443 18.492C33.329 18.492 33.8923 18.2623 34.3343 17.803L35.4263 18.986ZM34.0223 15.801C33.979 15.385 33.823 15.0643 33.5543 14.839C33.2856 14.6137 32.9563 14.501 32.5663 14.501C32.185 14.501 31.834 14.618 31.5133 14.852C31.1926 15.086 31.0063 15.4023 30.9543 15.801H34.0223ZM40.7584 18.375C41.4084 18.375 41.9934 18.05 42.5134 17.4L43.6704 18.7C42.7691 19.636 41.7941 20.104 40.7454 20.104C39.6968 20.104 38.8084 19.7747 38.0804 19.116C37.3611 18.4487 37.0014 17.582 37.0014 16.516C37.0014 15.4413 37.3654 14.5703 38.0934 13.903C38.8301 13.227 39.7011 12.889 40.7064 12.889C41.2091 12.889 41.7161 12.993 42.2274 13.201C42.7474 13.409 43.2024 13.7167 43.5924 14.124L42.5784 15.45C42.3531 15.1813 42.0758 14.9733 41.7464 14.826C41.4258 14.6787 41.1051 14.605 40.7844 14.605C40.2731 14.605 39.8311 14.774 39.4584 15.112C39.0944 15.4413 38.9124 15.905 38.9124 16.503C38.9124 17.0923 39.0944 17.5517 39.4584 17.881C39.8311 18.2103 40.2644 18.375 40.7584 18.375ZM46.9209 16.23V20H44.9709V10.354H46.9209V13.786C47.5102 13.188 48.1689 12.889 48.8969 12.889C49.6335 12.889 50.2532 13.149 50.7559 13.669C51.2585 14.189 51.5099 14.8823 51.5099 15.749V20H49.5599V16.178C49.5599 15.1033 49.1655 14.566 48.3769 14.566C47.9869 14.566 47.6445 14.709 47.3499 14.995C47.0639 15.2723 46.9209 15.684 46.9209 16.23ZM59.2146 20H57.3816V19.155C56.8789 19.7877 56.2549 20.104 55.5096 20.104C54.7729 20.104 54.1533 19.8917 53.6506 19.467C53.1479 19.0337 52.8966 18.4617 52.8966 17.751C52.8966 17.0317 53.1566 16.4943 53.6766 16.139C54.1966 15.7837 54.9073 15.606 55.8086 15.606H57.2646V15.567C57.2646 14.8217 56.8703 14.449 56.0816 14.449C55.7436 14.449 55.3839 14.5183 55.0026 14.657C54.6299 14.787 54.3136 14.9517 54.0536 15.151L53.1826 13.89C54.1013 13.2227 55.1499 12.889 56.3286 12.889C57.1779 12.889 57.8713 13.1013 58.4086 13.526C58.9459 13.9507 59.2146 14.6223 59.2146 15.541V20ZM57.2516 17.335V16.997H56.0296C55.2496 16.997 54.8596 17.2397 54.8596 17.725C54.8596 17.9763 54.9506 18.1713 55.1326 18.31C55.3233 18.44 55.5919 18.505 55.9386 18.505C56.2853 18.505 56.5886 18.401 56.8486 18.193C57.1173 17.9763 57.2516 17.6903 57.2516 17.335ZM60.8623 14.618V13.006H66.5043V14.527L63.1113 18.375H66.6993V20H60.6153V18.388L63.9173 14.618H60.8623ZM74.1189 20H72.2859V19.155C71.7832 19.7877 71.1592 20.104 70.4139 20.104C69.6772 20.104 69.0575 19.8917 68.5549 19.467C68.0522 19.0337 67.8009 18.4617 67.8009 17.751C67.8009 17.0317 68.0609 16.4943 68.5809 16.139C69.1009 15.7837 69.8115 15.606 70.7129 15.606H72.1689V15.567C72.1689 14.8217 71.7745 14.449 70.9859 14.449C70.6479 14.449 70.2882 14.5183 69.9069 14.657C69.5342 14.787 69.2179 14.9517 68.9579 15.151L68.0869 13.89C69.0055 13.2227 70.0542 12.889 71.2329 12.889C72.0822 12.889 72.7755 13.1013 73.3129 13.526C73.8502 13.9507 74.1189 14.6223 74.1189 15.541V20ZM72.1559 17.335V16.997H70.9339C70.1539 16.997 69.7639 17.2397 69.7639 17.725C69.7639 17.9763 69.8549 18.1713 70.0369 18.31C70.2275 18.44 70.4962 18.505 70.8429 18.505C71.1895 18.505 71.4929 18.401 71.7529 18.193C72.0215 17.9763 72.1559 17.6903 72.1559 17.335ZM78.6916 20.104C77.8683 20.104 77.1316 19.753 76.4816 19.051C75.8316 18.349 75.5066 17.478 75.5066 16.438C75.5066 15.398 75.823 14.5487 76.4556 13.89C77.0883 13.2227 77.8293 12.889 78.6786 12.889C79.528 12.889 80.2213 13.188 80.7586 13.786V10.354H82.7086V20H80.7586V19.077C80.2126 19.7617 79.5236 20.104 78.6916 20.104ZM77.4696 16.516C77.4696 17.0793 77.6386 17.543 77.9766 17.907C78.3146 18.2623 78.709 18.44 79.1596 18.44C79.6103 18.44 79.9916 18.2623 80.3036 17.907C80.6243 17.543 80.7846 17.0793 80.7846 16.516C80.7846 15.944 80.6243 15.4717 80.3036 15.099C79.9916 14.7177 79.606 14.527 79.1466 14.527C78.6873 14.527 78.293 14.7177 77.9636 15.099C77.6343 15.4803 77.4696 15.9527 77.4696 16.516ZM86.1148 16.503C86.1148 17.075 86.2752 17.543 86.5958 17.907C86.9252 18.2623 87.3412 18.44 87.8438 18.44C88.3552 18.44 88.7712 18.2623 89.0918 17.907C89.4212 17.543 89.5858 17.075 89.5858 16.503C89.5858 15.931 89.4212 15.463 89.0918 15.099C88.7712 14.735 88.3552 14.553 87.8438 14.553C87.3412 14.553 86.9252 14.735 86.5958 15.099C86.2752 15.463 86.1148 15.931 86.1148 16.503ZM91.5488 16.503C91.5488 17.517 91.1978 18.3707 90.4958 19.064C89.7938 19.7573 88.9098 20.104 87.8438 20.104C86.7865 20.104 85.9068 19.7573 85.2048 19.064C84.5028 18.3707 84.1518 17.517 84.1518 16.503C84.1518 15.489 84.5028 14.6353 85.2048 13.942C85.9068 13.24 86.7865 12.889 87.8438 12.889C88.9098 12.889 89.7938 13.24 90.4958 13.942C91.1978 14.6353 91.5488 15.489 91.5488 16.503ZM98.1987 17.829C98.1987 18.5137 97.9431 19.064 97.4317 19.48C96.9291 19.896 96.2877 20.104 95.5077 20.104C94.9877 20.104 94.4461 20.013 93.8827 19.831C93.3194 19.6403 92.8124 19.363 92.3617 18.999L93.2197 17.777C93.9477 18.3403 94.7234 18.622 95.5467 18.622C95.7981 18.622 95.9974 18.5743 96.1447 18.479C96.2921 18.375 96.3657 18.2407 96.3657 18.076C96.3657 17.9113 96.2617 17.7597 96.0537 17.621C95.8544 17.4823 95.5597 17.3523 95.1697 17.231C94.7884 17.1097 94.4937 17.0057 94.2857 16.919C94.0864 16.8323 93.8567 16.7067 93.5967 16.542C93.0681 16.2127 92.8037 15.7273 92.8037 15.086C92.8037 14.436 93.0637 13.9073 93.5837 13.5C94.1037 13.0927 94.7754 12.889 95.5987 12.889C96.4221 12.889 97.2454 13.1663 98.0687 13.721L97.3407 15.021C96.7341 14.605 96.1274 14.397 95.5207 14.397C94.9227 14.397 94.6237 14.5617 94.6237 14.891C94.6237 15.073 94.7191 15.216 94.9097 15.32C95.1004 15.424 95.4167 15.5453 95.8587 15.684C96.3007 15.8227 96.6127 15.931 96.7947 16.009C96.9854 16.0783 97.2107 16.191 97.4707 16.347C97.9561 16.6417 98.1987 17.1357 98.1987 17.829Z" fill="white"/>
</svg>
