<svg width="68" height="30" viewBox="0 0 68 30" fill="none" xmlns="http://www.w3.org/2000/svg">
<rect width="68" height="30" rx="15" fill="#1CCE28"/>
<path d="M18.348 11.104V19H16.164V11.104H13.392V9.214H21.12V11.104H18.348ZM23.3576 15.234C23.3576 15.85 23.5303 16.354 23.8756 16.746C24.2303 17.1287 24.6783 17.32 25.2196 17.32C25.7703 17.32 26.2183 17.1287 26.5636 16.746C26.9183 16.354 27.0956 15.85 27.0956 15.234C27.0956 14.618 26.9183 14.114 26.5636 13.722C26.2183 13.33 25.7703 13.134 25.2196 13.134C24.6783 13.134 24.2303 13.33 23.8756 13.722C23.5303 14.114 23.3576 14.618 23.3576 15.234ZM29.2096 15.234C29.2096 16.326 28.8316 17.2453 28.0756 17.992C27.3196 18.7387 26.3676 19.112 25.2196 19.112C24.0809 19.112 23.1336 18.7387 22.3776 17.992C21.6216 17.2453 21.2436 16.326 21.2436 15.234C21.2436 14.142 21.6216 13.2227 22.3776 12.476C23.1336 11.72 24.0809 11.342 25.2196 11.342C26.3676 11.342 27.3196 11.72 28.0756 12.476C28.8316 13.2227 29.2096 14.142 29.2096 15.234ZM33.7794 19.112C32.8927 19.112 32.0994 18.734 31.3994 17.978C30.6994 17.222 30.3494 16.284 30.3494 15.164C30.3494 14.044 30.6901 13.1293 31.3714 12.42C32.0527 11.7013 32.8507 11.342 33.7654 11.342C34.6801 11.342 35.4267 11.664 36.0054 12.308V8.612H38.1054V19H36.0054V18.006C35.4174 18.7433 34.6754 19.112 33.7794 19.112ZM32.4634 15.248C32.4634 15.8547 32.6454 16.354 33.0094 16.746C33.3734 17.1287 33.7981 17.32 34.2834 17.32C34.7687 17.32 35.1794 17.1287 35.5154 16.746C35.8607 16.354 36.0334 15.8547 36.0334 15.248C36.0334 14.632 35.8607 14.1233 35.5154 13.722C35.1794 13.3113 34.7641 13.106 34.2694 13.106C33.7747 13.106 33.3501 13.3113 32.9954 13.722C32.6407 14.1327 32.4634 14.6413 32.4634 15.248ZM41.7736 15.234C41.7736 15.85 41.9463 16.354 42.2916 16.746C42.6463 17.1287 43.0943 17.32 43.6356 17.32C44.1863 17.32 44.6343 17.1287 44.9796 16.746C45.3343 16.354 45.5116 15.85 45.5116 15.234C45.5116 14.618 45.3343 14.114 44.9796 13.722C44.6343 13.33 44.1863 13.134 43.6356 13.134C43.0943 13.134 42.6463 13.33 42.2916 13.722C41.9463 14.114 41.7736 14.618 41.7736 15.234ZM47.6256 15.234C47.6256 16.326 47.2476 17.2453 46.4916 17.992C45.7356 18.7387 44.7836 19.112 43.6356 19.112C42.4969 19.112 41.5496 18.7387 40.7936 17.992C40.0376 17.2453 39.6596 16.326 39.6596 15.234C39.6596 14.142 40.0376 13.2227 40.7936 12.476C41.5496 11.72 42.4969 11.342 43.6356 11.342C44.7836 11.342 45.7356 11.72 46.4916 12.476C47.2476 13.2227 47.6256 14.142 47.6256 15.234ZM54.787 16.662C54.787 17.3993 54.5117 17.992 53.961 18.44C53.4197 18.888 52.729 19.112 51.889 19.112C51.329 19.112 50.7457 19.014 50.139 18.818C49.5324 18.6127 48.9864 18.314 48.501 17.922L49.425 16.606C50.209 17.2127 51.0444 17.516 51.931 17.516C52.2017 17.516 52.4164 17.4647 52.575 17.362C52.7337 17.25 52.813 17.1053 52.813 16.928C52.813 16.7507 52.701 16.5873 52.477 16.438C52.2624 16.2887 51.945 16.1487 51.525 16.018C51.1144 15.8873 50.797 15.7753 50.573 15.682C50.3584 15.5887 50.111 15.4533 49.831 15.276C49.2617 14.9213 48.977 14.3987 48.977 13.708C48.977 13.008 49.257 12.4387 49.817 12C50.377 11.5613 51.1004 11.342 51.987 11.342C52.8737 11.342 53.7604 11.6407 54.647 12.238L53.863 13.638C53.2097 13.19 52.5564 12.966 51.903 12.966C51.259 12.966 50.937 13.1433 50.937 13.498C50.937 13.694 51.0397 13.848 51.245 13.96C51.4504 14.072 51.791 14.2027 52.267 14.352C52.743 14.5013 53.079 14.618 53.275 14.702C53.4804 14.7767 53.723 14.898 54.003 15.066C54.5257 15.3833 54.787 15.9153 54.787 16.662Z" fill="white"/>
</svg>
