<svg width="73" height="105" viewBox="0 0 73 105" fill="none" xmlns="http://www.w3.org/2000/svg">
<rect x="1" y="1" width="70.6667" height="72" rx="17" stroke="#F7F7F7" stroke-width="2"/>
<path d="M38.8025 35.3121C38.8709 35.6988 38.7821 36.0967 38.5556 36.4184C38.3292 36.74 37.9836 36.959 37.5949 37.0274L25.5219 39.1451L26.8258 46.5003C26.889 46.8572 27.0413 47.1926 27.2687 47.4757C27.4962 47.7588 27.7915 47.9806 28.1275 48.1207C28.4635 48.2608 28.8296 48.3147 29.192 48.2774C29.5544 48.2402 29.9016 48.1131 30.2018 47.9077L48.0574 35.6883C48.4012 35.453 48.6698 35.1244 48.831 34.7417C48.9923 34.3589 49.0393 33.9381 48.9668 33.5294C48.8944 33.1206 48.7053 32.7413 48.4221 32.4365C48.1389 32.1317 47.7737 31.9143 47.3697 31.8103L26.3892 26.4028C26.0366 26.3117 25.6667 26.3102 25.3133 26.3983C24.96 26.4864 24.6345 26.6614 24.3668 26.9071C24.0991 27.1529 23.8977 27.4616 23.7811 27.8049C23.6645 28.1482 23.6364 28.5151 23.6994 28.872L25.0035 36.2272L37.0765 34.1095C37.2693 34.0756 37.4669 34.0799 37.658 34.122C37.8491 34.1641 38.0298 34.2433 38.1901 34.355C38.3504 34.4667 38.4869 34.6087 38.592 34.7729C38.6971 34.9372 38.7687 35.1204 38.8025 35.3121Z" fill="#4A4A4A"/>
<path d="M25.6085 89.9777V91.1987H21.5055V93.2337H25.1905V94.3887H21.5055V96.4457H25.7405V97.6667H20.2075V89.9777H25.6085ZM28.4607 94.4987V97.6667H27.2287V91.8147H28.4607V92.8817C28.6587 92.5223 28.9301 92.24 29.2747 92.0347C29.6267 91.8293 30.0044 91.7267 30.4077 91.7267C31.0677 91.7267 31.5994 91.9283 32.0027 92.3317C32.4134 92.735 32.6187 93.318 32.6187 94.0807V97.6667H31.3867V94.4547C31.3867 93.3767 30.9394 92.8377 30.0447 92.8377C29.6194 92.8377 29.2491 92.9807 28.9337 93.2667C28.6184 93.5453 28.4607 93.956 28.4607 94.4987ZM35.8266 97.6667L33.4726 91.8147H34.7486L36.5306 96.2367L38.3126 91.8147H39.5886L37.2346 97.6667H35.8266ZM41.8025 97.6667H40.5705V91.8147H41.8025V97.6667ZM40.6475 90.6487C40.4935 90.4947 40.4165 90.3113 40.4165 90.0987C40.4165 89.886 40.4935 89.7027 40.6475 89.5487C40.8015 89.3947 40.9849 89.3177 41.1975 89.3177C41.4102 89.3177 41.5935 89.3947 41.7475 89.5487C41.9015 89.7027 41.9785 89.886 41.9785 90.0987C41.9785 90.3113 41.9015 90.4947 41.7475 90.6487C41.5935 90.8027 41.4102 90.8797 41.1975 90.8797C40.9849 90.8797 40.8015 90.8027 40.6475 90.6487ZM48.3301 97.6667H47.2081V96.8857C46.7241 97.465 46.0751 97.7547 45.2611 97.7547C44.6524 97.7547 44.1464 97.5823 43.7431 97.2377C43.3471 96.893 43.1491 96.4347 43.1491 95.8627C43.1491 95.2833 43.3617 94.8507 43.7871 94.5647C44.2124 94.2787 44.7881 94.1357 45.5141 94.1357H47.1091V93.9157C47.1091 93.1383 46.6764 92.7497 45.8111 92.7497C45.2684 92.7497 44.7037 92.9477 44.1171 93.3437L43.5671 92.5737C44.2784 92.009 45.0851 91.7267 45.9871 91.7267C46.6764 91.7267 47.2374 91.9027 47.6701 92.2547C48.1101 92.5993 48.3301 93.1457 48.3301 93.8937V97.6667ZM47.0981 95.4887V94.9937H45.7121C44.8247 94.9937 44.3811 95.2723 44.3811 95.8297C44.3811 96.1157 44.4911 96.3357 44.7111 96.4897C44.9311 96.6363 45.2354 96.7097 45.6241 96.7097C46.0201 96.7097 46.3647 96.5997 46.6581 96.3797C46.9514 96.1597 47.0981 95.8627 47.0981 95.4887ZM53.1141 92.9697C52.5055 92.9697 52.0471 93.1677 51.7391 93.5637C51.4311 93.9597 51.2771 94.4913 51.2771 95.1587V97.6667H50.0451V91.8147H51.2771V92.9917C51.4751 92.625 51.7428 92.3243 52.0801 92.0897C52.4248 91.855 52.7878 91.734 53.1691 91.7267L53.1801 92.9697C53.1581 92.9697 53.1361 92.9697 53.1141 92.9697Z" fill="#3F354B"/>
</svg>
