<svg width="76" height="108" viewBox="0 0 76 108" fill="none" xmlns="http://www.w3.org/2000/svg">
<path d="M22.9789 94H19.6129V86.311H22.6049C23.1256 86.311 23.5729 86.3733 23.9469 86.498C24.3282 86.6227 24.6106 86.7913 24.7939 87.004C25.1459 87.4 25.3219 87.8473 25.3219 88.346C25.3219 88.9473 25.1312 89.3947 24.7499 89.688C24.6106 89.7907 24.5152 89.8567 24.4639 89.886C24.4126 89.908 24.3209 89.9483 24.1889 90.007C24.6656 90.1097 25.0432 90.326 25.3219 90.656C25.6079 90.9787 25.7509 91.382 25.7509 91.866C25.7509 92.4013 25.5676 92.8743 25.2009 93.285C24.7682 93.7617 24.0276 94 22.9789 94ZM20.9109 89.501H22.5609C23.4996 89.501 23.9689 89.182 23.9689 88.544C23.9689 88.1773 23.8552 87.9133 23.6279 87.752C23.4006 87.5907 23.0486 87.51 22.5719 87.51H20.9109V89.501ZM20.9109 92.801H22.9459C23.4226 92.801 23.7856 92.7277 24.0349 92.581C24.2916 92.427 24.4199 92.141 24.4199 91.723C24.4199 91.041 23.8736 90.7 22.7809 90.7H20.9109V92.801ZM28.4355 94H27.2035V88.148H28.4355V94ZM27.2805 86.982C27.1265 86.828 27.0495 86.6447 27.0495 86.432C27.0495 86.2193 27.1265 86.036 27.2805 85.882C27.4345 85.728 27.6178 85.651 27.8305 85.651C28.0432 85.651 28.2265 85.728 28.3805 85.882C28.5345 86.036 28.6115 86.2193 28.6115 86.432C28.6115 86.6447 28.5345 86.828 28.3805 86.982C28.2265 87.136 28.0432 87.213 27.8305 87.213C27.6178 87.213 27.4345 87.136 27.2805 86.982ZM31.7401 89.138V92.108C31.7401 92.3867 31.8134 92.6103 31.9601 92.779C32.1067 92.9403 32.3121 93.021 32.5761 93.021C32.8401 93.021 33.0931 92.8927 33.3351 92.636L33.8411 93.505C33.4084 93.8937 32.9281 94.088 32.4001 94.088C31.8794 94.088 31.4321 93.9083 31.0581 93.549C30.6914 93.1823 30.5081 92.691 30.5081 92.075V89.138H29.7711V88.148H30.5081V86.311H31.7401V88.148H33.2801V89.138H31.7401ZM37.4157 94.088C36.6017 94.088 35.9014 93.813 35.3147 93.263C34.728 92.7057 34.4347 91.9797 34.4347 91.085C34.4347 90.1903 34.739 89.4643 35.3477 88.907C35.9637 88.3423 36.7117 88.06 37.5917 88.06C38.4717 88.06 39.216 88.3643 39.8247 88.973L39.0987 89.864C38.5927 89.424 38.083 89.204 37.5697 89.204C37.0564 89.204 36.609 89.3763 36.2277 89.721C35.8537 90.0583 35.6667 90.4983 35.6667 91.041C35.6667 91.5763 35.8537 92.031 36.2277 92.405C36.6017 92.779 37.06 92.966 37.6027 92.966C38.1527 92.966 38.6697 92.7167 39.1537 92.218L39.8797 93.01C39.1684 93.7287 38.347 94.088 37.4157 94.088ZM42.4034 92.46C42.7554 92.812 43.1991 92.988 43.7344 92.988C44.2698 92.988 44.7098 92.812 45.0544 92.46C45.4064 92.1007 45.5824 91.6387 45.5824 91.074C45.5824 90.5093 45.4064 90.051 45.0544 89.699C44.7098 89.3397 44.2698 89.16 43.7344 89.16C43.1991 89.16 42.7554 89.3397 42.4034 89.699C42.0588 90.051 41.8864 90.5093 41.8864 91.074C41.8864 91.6387 42.0588 92.1007 42.4034 92.46ZM45.9344 93.219C45.3478 93.7983 44.6144 94.088 43.7344 94.088C42.8544 94.088 42.1211 93.7983 41.5344 93.219C40.9478 92.6323 40.6544 91.9173 40.6544 91.074C40.6544 90.2307 40.9478 89.5193 41.5344 88.94C42.1211 88.3533 42.8544 88.06 43.7344 88.06C44.6144 88.06 45.3478 88.3533 45.9344 88.94C46.5211 89.5193 46.8144 90.2307 46.8144 91.074C46.8144 91.9173 46.5211 92.6323 45.9344 93.219ZM49.4472 94H48.2152V88.148H49.4472V94ZM48.2922 86.982C48.1382 86.828 48.0612 86.6447 48.0612 86.432C48.0612 86.2193 48.1382 86.036 48.2922 85.882C48.4462 85.728 48.6296 85.651 48.8422 85.651C49.0549 85.651 49.2382 85.728 49.3922 85.882C49.5462 86.036 49.6232 86.2193 49.6232 86.432C49.6232 86.6447 49.5462 86.828 49.3922 86.982C49.2382 87.136 49.0549 87.213 48.8422 87.213C48.6296 87.213 48.4462 87.136 48.2922 86.982ZM52.4658 90.832V94H51.2338V88.148H52.4658V89.215C52.6638 88.8557 52.9351 88.5733 53.2798 88.368C53.6318 88.1627 54.0094 88.06 54.4128 88.06C55.0728 88.06 55.6044 88.2617 56.0078 88.665C56.4184 89.0683 56.6238 89.6513 56.6238 90.414V94H55.3918V90.788C55.3918 89.71 54.9444 89.171 54.0498 89.171C53.6244 89.171 53.2541 89.314 52.9388 89.6C52.6234 89.8787 52.4658 90.2893 52.4658 90.832ZM28.9603 105.823C29.4076 105.823 29.7926 105.75 30.1153 105.603C30.4379 105.449 30.7753 105.207 31.1273 104.877L31.9633 105.735C31.1493 106.637 30.1593 107.088 28.9933 107.088C27.8346 107.088 26.8703 106.714 26.1003 105.966C25.3376 105.218 24.9563 104.272 24.9563 103.128C24.9563 101.984 25.3449 101.031 26.1223 100.268C26.9069 99.5053 27.8933 99.124 29.0813 99.124C30.2766 99.124 31.2739 99.564 32.0733 100.444L31.2483 101.346C30.8816 100.994 30.5333 100.748 30.2033 100.609C29.8806 100.47 29.4993 100.4 29.0593 100.4C28.2819 100.4 27.6293 100.653 27.1013 101.159C26.5733 101.658 26.3093 102.299 26.3093 103.084C26.3093 103.861 26.5696 104.514 27.0903 105.042C27.6183 105.563 28.2416 105.823 28.9603 105.823ZM38.1159 107H36.9939V106.219C36.5099 106.798 35.8609 107.088 35.0469 107.088C34.4382 107.088 33.9322 106.916 33.5289 106.571C33.1329 106.226 32.9349 105.768 32.9349 105.196C32.9349 104.617 33.1476 104.184 33.5729 103.898C33.9982 103.612 34.5739 103.469 35.2999 103.469H36.8949V103.249C36.8949 102.472 36.4622 102.083 35.5969 102.083C35.0542 102.083 34.4896 102.281 33.9029 102.677L33.3529 101.907C34.0642 101.342 34.8709 101.06 35.7729 101.06C36.4622 101.06 37.0232 101.236 37.4559 101.588C37.8959 101.933 38.1159 102.479 38.1159 103.227V107ZM36.8839 104.822V104.327H35.4979C34.6106 104.327 34.1669 104.606 34.1669 105.163C34.1669 105.449 34.2769 105.669 34.4969 105.823C34.7169 105.97 35.0212 106.043 35.4099 106.043C35.8059 106.043 36.1506 105.933 36.4439 105.713C36.7372 105.493 36.8839 105.196 36.8839 104.822ZM43.9999 105.251C43.9999 105.808 43.7983 106.256 43.3949 106.593C42.9916 106.923 42.4746 107.088 41.8439 107.088C41.4186 107.088 40.9749 107.011 40.5129 106.857C40.0583 106.703 39.6549 106.487 39.3029 106.208L39.8969 105.251C40.5789 105.764 41.2389 106.021 41.8769 106.021C42.1556 106.021 42.3756 105.959 42.5369 105.834C42.6983 105.702 42.7789 105.537 42.7789 105.339C42.7789 105.046 42.3903 104.782 41.6129 104.547C41.5543 104.525 41.5103 104.51 41.4809 104.503C40.2636 104.173 39.6549 103.623 39.6549 102.853C39.6549 102.31 39.8639 101.878 40.2819 101.555C40.7073 101.225 41.2573 101.06 41.9319 101.06C42.6066 101.06 43.2446 101.258 43.8459 101.654L43.3839 102.567C42.9073 102.252 42.3903 102.094 41.8329 102.094C41.5396 102.094 41.3013 102.149 41.1179 102.259C40.9346 102.362 40.8429 102.519 40.8429 102.732C40.8429 102.923 40.9383 103.062 41.1289 103.15C41.2609 103.216 41.4443 103.278 41.6789 103.337C41.9209 103.396 42.1336 103.454 42.3169 103.513C42.5003 103.572 42.6763 103.638 42.8449 103.711C43.0209 103.784 43.2079 103.887 43.4059 104.019C43.8019 104.283 43.9999 104.694 43.9999 105.251ZM46.6274 103.832V107H45.3954V98.849H46.6274V102.215C46.8034 101.856 47.0674 101.573 47.4194 101.368C47.7787 101.163 48.1637 101.06 48.5744 101.06C49.2344 101.06 49.7661 101.262 50.1694 101.665C50.5801 102.068 50.7854 102.651 50.7854 103.414V107H49.5534V103.788C49.5534 102.71 49.1061 102.171 48.2114 102.171C47.7861 102.171 47.4157 102.314 47.1004 102.6C46.7851 102.879 46.6274 103.289 46.6274 103.832Z" fill="#3F354B"/>
<rect x="2" y="1" width="70.6667" height="72" rx="17" stroke="#F7F7F7" stroke-width="2"/>
<path d="M37.539 21C36.1847 20.9977 34.8081 21.165 33.4353 21.5165C24.6501 23.7678 19.3475 32.7327 21.5923 41.5413C23.8373 50.35 32.7791 55.6665 41.5648 53.4154C50.3505 51.1648 55.6526 42.1992 53.408 33.3906C51.5136 25.9585 44.852 21.0123 37.539 21Z" fill="#1CCE28"/>
<path d="M10.8462 21.0754V54H26.0004C20.834 50.365 17.4563 44.3468 17.4563 37.5377C17.4563 30.7289 20.8337 24.7106 26.0004 21.0754H10.8462Z" fill="#1CCE28"/>
<path d="M48.9998 21.0754C54.1661 24.7106 57.5438 30.7289 57.5438 37.5377C57.5438 44.3468 54.1664 50.365 48.9998 54H64.1539V21.0754H48.9998Z" fill="#1CCE28"/>
<path d="M37.0624 26.5056L37.8761 29.6984C39.3626 29.4143 40.5234 29.415 41.6539 29.8761C43.1156 30.4715 43.4542 32.0701 43.5232 32.4543C43.5916 32.8385 43.6118 33.6079 43.4009 34.1609C43.1905 34.7148 42.5029 35.3911 42.5029 35.3911C42.5029 35.3911 43.5077 35.3489 44.3071 35.6834C45.1048 36.0181 45.8286 36.7827 46.1337 38.0961C46.4397 39.4088 46.5033 40.7741 45.5315 41.905C44.583 43.008 43.3915 43.4841 42.8314 43.708L42.7894 43.7245C42.5226 43.8318 42.0595 43.9916 41.5595 44.1512L42.3742 47.3486L40.4112 47.8519L39.6092 44.706L38.114 45.0891L38.9158 48.2349L36.9528 48.7382L36.151 45.5919L32.2887 46.5811L32.09 44.1135L33.2642 43.8129C33.6587 43.7113 33.8142 43.6328 33.9394 43.4346C34.0645 43.2357 34.0403 42.987 33.991 42.7932L31.9158 34.6486C31.7857 34.1383 31.7091 34.011 31.4085 33.8087C31.1075 33.6063 30.5483 33.7123 30.2383 33.7925L29.1036 34.0826L28.5825 32.0385L32.4451 31.0492L31.6403 27.8947L33.6035 27.3919L34.4074 30.5469L35.9026 30.1639L35.0985 27.0089L37.0624 26.5056V26.5056Z" fill="white"/>
<path d="M37.9235 32.1738C37.2272 32.1709 36.7422 32.2791 36.2021 32.409C35.5852 32.5575 34.9751 32.7727 34.9751 32.7727L35.9429 36.5715C35.9429 36.5715 36.8676 36.3638 37.5761 36.1528C38.2849 35.9416 39.0044 35.5819 39.4769 35.1374C39.9501 34.6926 40.1401 34.1342 39.9393 33.4214C39.7373 32.7086 39.1063 32.224 38.2358 32.182C38.1317 32.177 38.0276 32.1743 37.9235 32.1738Z" fill="#1CCE28"/>
<path d="M40.0196 37.8314C39.5645 37.8349 39.1105 37.8786 38.663 37.9622C37.6736 38.147 36.4424 38.5308 36.4424 38.5308L37.5184 42.7524C37.5184 42.7524 38.8285 42.4469 39.6833 42.1589C40.5384 41.8713 41.381 41.4204 41.7675 41.0567C42.1533 40.6932 42.5962 40.1678 42.3501 39.2023C42.104 38.2364 41.3589 37.9964 40.9451 37.9064C40.7382 37.8614 40.4149 37.8291 40.0196 37.8314Z" fill="#1CCE28"/>
</svg>
