<svg width="73" height="105" viewBox="0 0 73 105" fill="none" xmlns="http://www.w3.org/2000/svg">
<rect x="1" y="1" width="70.6667" height="72" rx="17" stroke="#F7F7F7" stroke-width="2"/>
<path d="M25.0437 35.6316L31.9214 47.4854C32.0552 47.7158 32.3312 47.8406 32.5991 47.792L46.3827 45.2907C46.6426 45.2435 46.8357 45.0437 46.8619 44.7946C46.8881 44.5456 46.7416 44.3032 46.4982 44.193L41.2253 41.8064L44.7205 34.541C45.0375 33.882 45.0594 33.1223 44.7812 32.429C44.5031 31.7357 43.9477 31.1657 43.2373 30.8443L38.4767 28.6905C37.7664 28.369 36.9592 28.3225 36.2328 28.5612C35.5064 28.7999 34.9203 29.3042 34.6035 29.9633L31.1082 37.2287L25.8359 34.8422C25.593 34.7336 25.3089 34.7807 25.1296 34.9593C24.9504 35.1379 24.9158 35.4084 25.0437 35.6316Z" fill="#4A4A4A"/>
<path d="M46.9668 28.3821C46.6032 29.144 45.6959 29.4737 44.9281 29.123L37.8104 25.8724C37.0239 25.5133 36.6845 24.5793 37.0569 23.799C37.4205 23.0371 38.3277 22.7074 39.0956 23.0581L46.2133 26.3087C46.9998 26.6678 47.3392 27.6018 46.9668 28.3821Z" fill="#4A4A4A"/>
<path d="M24.1104 92.4747C24.1104 93.7433 23.5568 94.5427 22.4494 94.8727L24.4624 97.6667H22.8124L20.9754 95.0817H19.2704V97.6667H17.9724V89.9777H20.8324C22.0058 89.9777 22.8454 90.1757 23.3514 90.5717C23.8574 90.9677 24.1104 91.602 24.1104 92.4747ZM20.8874 93.9047C21.6207 93.9047 22.1194 93.791 22.3834 93.5637C22.6474 93.3363 22.7794 92.9733 22.7794 92.4747C22.7794 91.9687 22.6438 91.624 22.3724 91.4407C22.1011 91.25 21.6171 91.1547 20.9204 91.1547H19.2704V93.9047H20.8874ZM31.2443 95.2797H26.6573C26.6867 95.705 26.881 96.0497 27.2403 96.3137C27.5997 96.5703 28.0103 96.6987 28.4723 96.6987C29.2057 96.6987 29.763 96.4677 30.1443 96.0057L30.8483 96.7757C30.2177 97.4283 29.3963 97.7547 28.3843 97.7547C27.563 97.7547 26.8627 97.4833 26.2833 96.9407C25.7113 96.3907 25.4253 95.6573 25.4253 94.7407C25.4253 93.8167 25.7187 93.0833 26.3053 92.5407C26.892 91.998 27.5813 91.7267 28.3733 91.7267C29.1727 91.7267 29.851 91.9687 30.4083 92.4527C30.9657 92.9293 31.2443 93.5893 31.2443 94.4327V95.2797ZM26.6573 94.3117H30.0123C30.0123 93.8203 29.8583 93.4427 29.5503 93.1787C29.2423 92.9147 28.861 92.7827 28.4063 92.7827C27.959 92.7827 27.5557 92.922 27.1963 93.2007C26.837 93.472 26.6573 93.8423 26.6573 94.3117ZM34.0742 92.8047V95.7747C34.0742 96.0533 34.1475 96.277 34.2942 96.4457C34.4408 96.607 34.6462 96.6877 34.9102 96.6877C35.1742 96.6877 35.4272 96.5593 35.6692 96.3027L36.1752 97.1717C35.7425 97.5603 35.2622 97.7547 34.7342 97.7547C34.2135 97.7547 33.7662 97.575 33.3922 97.2157C33.0255 96.849 32.8422 96.3577 32.8422 95.7417V92.8047H32.1052V91.8147H32.8422V89.9777H34.0742V91.8147H35.6142V92.8047H34.0742ZM38.3858 97.6667H37.1538V91.8147H38.3858V97.6667ZM37.2308 90.6487C37.0768 90.4947 36.9998 90.3113 36.9998 90.0987C36.9998 89.886 37.0768 89.7027 37.2308 89.5487C37.3848 89.3947 37.5682 89.3177 37.7808 89.3177C37.9935 89.3177 38.1768 89.3947 38.3308 89.5487C38.4848 89.7027 38.5618 89.886 38.5618 90.0987C38.5618 90.3113 38.4848 90.4947 38.3308 90.6487C38.1768 90.8027 37.9935 90.8797 37.7808 90.8797C37.5682 90.8797 37.3848 90.8027 37.2308 90.6487ZM43.2414 92.9697C42.6327 92.9697 42.1744 93.1677 41.8664 93.5637C41.5584 93.9597 41.4044 94.4913 41.4044 95.1587V97.6667H40.1724V91.8147H41.4044V92.9917C41.6024 92.625 41.8701 92.3243 42.2074 92.0897C42.5521 91.855 42.9151 91.734 43.2964 91.7267L43.3074 92.9697C43.2854 92.9697 43.2634 92.9697 43.2414 92.9697ZM49.2318 97.6667H48.1098V96.8857C47.6258 97.465 46.9768 97.7547 46.1628 97.7547C45.5541 97.7547 45.0481 97.5823 44.6448 97.2377C44.2488 96.893 44.0508 96.4347 44.0508 95.8627C44.0508 95.2833 44.2634 94.8507 44.6888 94.5647C45.1141 94.2787 45.6898 94.1357 46.4158 94.1357H48.0108V93.9157C48.0108 93.1383 47.5781 92.7497 46.7128 92.7497C46.1701 92.7497 45.6054 92.9477 45.0188 93.3437L44.4688 92.5737C45.1801 92.009 45.9868 91.7267 46.8888 91.7267C47.5781 91.7267 48.1391 91.9027 48.5718 92.2547C49.0118 92.5993 49.2318 93.1457 49.2318 93.8937V97.6667ZM47.9998 95.4887V94.9937H46.6138C45.7264 94.9937 45.2828 95.2723 45.2828 95.8297C45.2828 96.1157 45.3928 96.3357 45.6128 96.4897C45.8328 96.6363 46.1371 96.7097 46.5258 96.7097C46.9218 96.7097 47.2664 96.5997 47.5598 96.3797C47.8531 96.1597 47.9998 95.8627 47.9998 95.4887ZM54.0158 92.9697C53.4071 92.9697 52.9488 93.1677 52.6408 93.5637C52.3328 93.9597 52.1788 94.4913 52.1788 95.1587V97.6667H50.9468V91.8147H52.1788V92.9917C52.3768 92.625 52.6445 92.3243 52.9818 92.0897C53.3265 91.855 53.6895 91.734 54.0708 91.7267L54.0818 92.9697C54.0598 92.9697 54.0378 92.9697 54.0158 92.9697Z" fill="#3F354B"/>
</svg>
