<svg width="113" height="30" viewBox="0 0 113 30" fill="none" xmlns="http://www.w3.org/2000/svg">
<rect width="113" height="30" rx="15" fill="#A2AEBE"/>
<path d="M20.329 10.913C21.9497 10.913 23.1933 11.3117 24.06 12.109C24.9267 12.8977 25.36 13.9983 25.36 15.411C25.36 16.8237 24.9353 17.9417 24.086 18.765C23.2453 19.5883 21.9583 20 20.225 20H17.118V10.913H20.329ZM20.433 18.206C21.3603 18.206 22.071 17.972 22.565 17.504C23.0677 17.036 23.319 16.3557 23.319 15.463C23.319 14.5703 23.0677 13.8857 22.565 13.409C22.071 12.9237 21.3083 12.681 20.277 12.681H19.146V18.206H20.433ZM32.9722 18.986C32.1835 19.7313 31.2562 20.104 30.1902 20.104C29.1329 20.104 28.2575 19.779 27.5642 19.129C26.8709 18.4703 26.5242 17.5907 26.5242 16.49C26.5242 15.3893 26.8752 14.514 27.5772 13.864C28.2879 13.214 29.1242 12.889 30.0862 12.889C31.0482 12.889 31.8629 13.1793 32.5302 13.76C33.2062 14.3407 33.5442 15.138 33.5442 16.152V17.192H28.4482C28.5089 17.5733 28.7082 17.8853 29.0462 18.128C29.3842 18.3707 29.7655 18.492 30.1902 18.492C30.8749 18.492 31.4382 18.2623 31.8802 17.803L32.9722 18.986ZM31.5682 15.801C31.5249 15.385 31.3689 15.0643 31.1002 14.839C30.8315 14.6137 30.5022 14.501 30.1122 14.501C29.7309 14.501 29.3799 14.618 29.0592 14.852C28.7385 15.086 28.5522 15.4023 28.5002 15.801H31.5682ZM39.0193 12.889C39.834 12.889 40.5577 13.2313 41.1903 13.916C41.8317 14.592 42.1523 15.4457 42.1523 16.477C42.1523 17.5083 41.8317 18.3707 41.1903 19.064C40.5577 19.7573 39.8123 20.104 38.9543 20.104C38.105 20.104 37.4203 19.7617 36.9003 19.077V22.522H34.9503V13.006H36.9003V13.786C37.4983 13.188 38.2047 12.889 39.0193 12.889ZM36.8743 16.516C36.8743 17.0793 37.0303 17.543 37.3423 17.907C37.663 18.2623 38.0487 18.44 38.4993 18.44C38.95 18.44 39.3443 18.2623 39.6823 17.907C40.0203 17.543 40.1893 17.0793 40.1893 16.516C40.1893 15.9527 40.0247 15.4803 39.6953 15.099C39.366 14.7177 38.9717 14.527 38.5123 14.527C38.053 14.527 37.663 14.7177 37.3423 15.099C37.0303 15.4717 36.8743 15.944 36.8743 16.516ZM45.1685 16.503C45.1685 17.075 45.3289 17.543 45.6495 17.907C45.9789 18.2623 46.3949 18.44 46.8975 18.44C47.4089 18.44 47.8249 18.2623 48.1455 17.907C48.4749 17.543 48.6395 17.075 48.6395 16.503C48.6395 15.931 48.4749 15.463 48.1455 15.099C47.8249 14.735 47.4089 14.553 46.8975 14.553C46.3949 14.553 45.9789 14.735 45.6495 15.099C45.3289 15.463 45.1685 15.931 45.1685 16.503ZM50.6025 16.503C50.6025 17.517 50.2515 18.3707 49.5495 19.064C48.8475 19.7573 47.9635 20.104 46.8975 20.104C45.8402 20.104 44.9605 19.7573 44.2585 19.064C43.5565 18.3707 43.2055 17.517 43.2055 16.503C43.2055 15.489 43.5565 14.6353 44.2585 13.942C44.9605 13.24 45.8402 12.889 46.8975 12.889C47.9635 12.889 48.8475 13.24 49.5495 13.942C50.2515 14.6353 50.6025 15.489 50.6025 16.503ZM57.2525 17.829C57.2525 18.5137 56.9968 19.064 56.4855 19.48C55.9828 19.896 55.3415 20.104 54.5615 20.104C54.0415 20.104 53.4998 20.013 52.9365 19.831C52.3731 19.6403 51.8661 19.363 51.4155 18.999L52.2735 17.777C53.0015 18.3403 53.7771 18.622 54.6005 18.622C54.8518 18.622 55.0511 18.5743 55.1985 18.479C55.3458 18.375 55.4195 18.2407 55.4195 18.076C55.4195 17.9113 55.3155 17.7597 55.1075 17.621C54.9081 17.4823 54.6135 17.3523 54.2235 17.231C53.8421 17.1097 53.5475 17.0057 53.3395 16.919C53.1401 16.8323 52.9105 16.7067 52.6505 16.542C52.1218 16.2127 51.8575 15.7273 51.8575 15.086C51.8575 14.436 52.1175 13.9073 52.6375 13.5C53.1575 13.0927 53.8291 12.889 54.6525 12.889C55.4758 12.889 56.2991 13.1663 57.1225 13.721L56.3945 15.021C55.7878 14.605 55.1811 14.397 54.5745 14.397C53.9765 14.397 53.6775 14.5617 53.6775 14.891C53.6775 15.073 53.7728 15.216 53.9635 15.32C54.1541 15.424 54.4705 15.5453 54.9125 15.684C55.3545 15.8227 55.6665 15.931 55.8485 16.009C56.0391 16.0783 56.2645 16.191 56.5245 16.347C57.0098 16.6417 57.2525 17.1357 57.2525 17.829ZM60.6914 20H58.7414V13.006H60.6914V20ZM58.8974 12.122C58.6807 11.8967 58.5724 11.6237 58.5724 11.303C58.5724 10.9823 58.6807 10.7137 58.8974 10.497C59.1227 10.2717 59.3957 10.159 59.7164 10.159C60.037 10.159 60.3057 10.2717 60.5224 10.497C60.7477 10.7137 60.8604 10.9823 60.8604 11.303C60.8604 11.6237 60.7477 11.8967 60.5224 12.122C60.3057 12.3387 60.037 12.447 59.7164 12.447C59.3957 12.447 59.1227 12.3387 58.8974 12.122ZM64.8643 14.41V17.543C64.8643 17.8117 64.9336 18.024 65.0723 18.18C65.2109 18.3273 65.3756 18.401 65.5663 18.401C65.9303 18.401 66.2379 18.2363 66.4893 17.907L67.2173 19.272C66.6106 19.8267 65.9693 20.104 65.2933 20.104C64.6259 20.104 64.0583 19.883 63.5903 19.441C63.1309 18.999 62.9013 18.3967 62.9013 17.634V14.41H62.0823V13.006H62.9013V10.913H64.8643V13.006H66.5543V14.41H64.8643ZM74.2038 20H72.3708V19.155C71.8682 19.7877 71.2442 20.104 70.4988 20.104C69.7622 20.104 69.1425 19.8917 68.6398 19.467C68.1372 19.0337 67.8858 18.4617 67.8858 17.751C67.8858 17.0317 68.1458 16.4943 68.6658 16.139C69.1858 15.7837 69.8965 15.606 70.7978 15.606H72.2538V15.567C72.2538 14.8217 71.8595 14.449 71.0708 14.449C70.7328 14.449 70.3732 14.5183 69.9918 14.657C69.6192 14.787 69.3028 14.9517 69.0428 15.151L68.1718 13.89C69.0905 13.2227 70.1392 12.889 71.3178 12.889C72.1672 12.889 72.8605 13.1013 73.3978 13.526C73.9352 13.9507 74.2038 14.6223 74.2038 15.541V20ZM72.2408 17.335V16.997H71.0188C70.2388 16.997 69.8488 17.2397 69.8488 17.725C69.8488 17.9763 69.9398 18.1713 70.1218 18.31C70.3125 18.44 70.5812 18.505 70.9278 18.505C71.2745 18.505 71.5778 18.401 71.8378 18.193C72.1065 17.9763 72.2408 17.6903 72.2408 17.335ZM78.7766 20.104C77.9533 20.104 77.2166 19.753 76.5666 19.051C75.9166 18.349 75.5916 17.478 75.5916 16.438C75.5916 15.398 75.9079 14.5487 76.5406 13.89C77.1733 13.2227 77.9143 12.889 78.7636 12.889C79.6129 12.889 80.3063 13.188 80.8436 13.786V10.354H82.7936V20H80.8436V19.077C80.2976 19.7617 79.6086 20.104 78.7766 20.104ZM77.5546 16.516C77.5546 17.0793 77.7236 17.543 78.0616 17.907C78.3996 18.2623 78.7939 18.44 79.2446 18.44C79.6953 18.44 80.0766 18.2623 80.3886 17.907C80.7093 17.543 80.8696 17.0793 80.8696 16.516C80.8696 15.944 80.7093 15.4717 80.3886 15.099C80.0766 14.7177 79.6909 14.527 79.2316 14.527C78.7723 14.527 78.3779 14.7177 78.0486 15.099C77.7193 15.4803 77.5546 15.9527 77.5546 16.516ZM86.1998 16.503C86.1998 17.075 86.3601 17.543 86.6808 17.907C87.0101 18.2623 87.4261 18.44 87.9288 18.44C88.4401 18.44 88.8561 18.2623 89.1768 17.907C89.5061 17.543 89.6708 17.075 89.6708 16.503C89.6708 15.931 89.5061 15.463 89.1768 15.099C88.8561 14.735 88.4401 14.553 87.9288 14.553C87.4261 14.553 87.0101 14.735 86.6808 15.099C86.3601 15.463 86.1998 15.931 86.1998 16.503ZM91.6338 16.503C91.6338 17.517 91.2828 18.3707 90.5808 19.064C89.8788 19.7573 88.9948 20.104 87.9288 20.104C86.8715 20.104 85.9918 19.7573 85.2898 19.064C84.5878 18.3707 84.2368 17.517 84.2368 16.503C84.2368 15.489 84.5878 14.6353 85.2898 13.942C85.9918 13.24 86.8715 12.889 87.9288 12.889C88.9948 12.889 89.8788 13.24 90.5808 13.942C91.2828 14.6353 91.6338 15.489 91.6338 16.503ZM98.2837 17.829C98.2837 18.5137 98.028 19.064 97.5167 19.48C97.014 19.896 96.3727 20.104 95.5927 20.104C95.0727 20.104 94.531 20.013 93.9677 19.831C93.4044 19.6403 92.8974 19.363 92.4467 18.999L93.3047 17.777C94.0327 18.3403 94.8084 18.622 95.6317 18.622C95.883 18.622 96.0824 18.5743 96.2297 18.479C96.377 18.375 96.4507 18.2407 96.4507 18.076C96.4507 17.9113 96.3467 17.7597 96.1387 17.621C95.9394 17.4823 95.6447 17.3523 95.2547 17.231C94.8734 17.1097 94.5787 17.0057 94.3707 16.919C94.1714 16.8323 93.9417 16.7067 93.6817 16.542C93.153 16.2127 92.8887 15.7273 92.8887 15.086C92.8887 14.436 93.1487 13.9073 93.6687 13.5C94.1887 13.0927 94.8604 12.889 95.6837 12.889C96.507 12.889 97.3304 13.1663 98.1537 13.721L97.4257 15.021C96.819 14.605 96.2124 14.397 95.6057 14.397C95.0077 14.397 94.7087 14.5617 94.7087 14.891C94.7087 15.073 94.804 15.216 94.9947 15.32C95.1854 15.424 95.5017 15.5453 95.9437 15.684C96.3857 15.8227 96.6977 15.931 96.8797 16.009C97.0704 16.0783 97.2957 16.191 97.5557 16.347C98.041 16.6417 98.2837 17.1357 98.2837 17.829Z" fill="white"/>
</svg>
