<svg width="113" height="30" viewBox="0 0 113 30" fill="none" xmlns="http://www.w3.org/2000/svg">
<rect width="113" height="30" rx="15" fill="#A2AEBE"/>
<path d="M19.291 17.206C20.2877 17.206 21.1023 16.8117 21.735 16.023L23.035 17.362C22.0037 18.5233 20.786 19.104 19.382 19.104C17.9867 19.104 16.834 18.662 15.924 17.778C15.0227 16.894 14.572 15.7803 14.572 14.437C14.572 13.085 15.0313 11.9583 15.95 11.057C16.8773 10.1557 18.0083 9.705 19.343 9.705C20.8337 9.705 22.0817 10.2727 23.087 11.408L21.826 12.838C21.1847 12.0407 20.3873 11.642 19.434 11.642C18.6713 11.642 18.017 11.8933 17.471 12.396C16.9337 12.89 16.665 13.5617 16.665 14.411C16.665 15.2517 16.9207 15.9277 17.432 16.439C17.9433 16.9503 18.563 17.206 19.291 17.206ZM25.7252 15.503C25.7252 16.075 25.8855 16.543 26.2062 16.907C26.5355 17.2623 26.9515 17.44 27.4542 17.44C27.9655 17.44 28.3815 17.2623 28.7022 16.907C29.0315 16.543 29.1962 16.075 29.1962 15.503C29.1962 14.931 29.0315 14.463 28.7022 14.099C28.3815 13.735 27.9655 13.553 27.4542 13.553C26.9515 13.553 26.5355 13.735 26.2062 14.099C25.8855 14.463 25.7252 14.931 25.7252 15.503ZM31.1592 15.503C31.1592 16.517 30.8082 17.3707 30.1062 18.064C29.4042 18.7573 28.5202 19.104 27.4542 19.104C26.3969 19.104 25.5172 18.7573 24.8152 18.064C24.1132 17.3707 23.7622 16.517 23.7622 15.503C23.7622 14.489 24.1132 13.6353 24.8152 12.942C25.5172 12.24 26.3969 11.889 27.4542 11.889C28.5202 11.889 29.4042 12.24 30.1062 12.942C30.8082 13.6353 31.1592 14.489 31.1592 15.503ZM34.5576 15.1V19H32.6076V12.006H34.5576V12.786C35.1469 12.188 35.8099 11.889 36.5466 11.889C37.2832 11.889 37.8986 12.149 38.3926 12.669C38.8952 13.189 39.1466 13.8823 39.1466 14.749V19H37.1966V15.048C37.1966 13.9733 36.8022 13.436 36.0136 13.436C35.6236 13.436 35.2812 13.579 34.9866 13.865C34.7006 14.1423 34.5576 14.554 34.5576 15.1ZM46.1753 16.829C46.1753 17.5137 45.9196 18.064 45.4083 18.48C44.9056 18.896 44.2643 19.104 43.4843 19.104C42.9643 19.104 42.4226 19.013 41.8593 18.831C41.296 18.6403 40.789 18.363 40.3383 17.999L41.1963 16.777C41.9243 17.3403 42.7 17.622 43.5233 17.622C43.7746 17.622 43.974 17.5743 44.1213 17.479C44.2686 17.375 44.3423 17.2407 44.3423 17.076C44.3423 16.9113 44.2383 16.7597 44.0303 16.621C43.831 16.4823 43.5363 16.3523 43.1463 16.231C42.765 16.1097 42.4703 16.0057 42.2623 15.919C42.063 15.8323 41.8333 15.7067 41.5733 15.542C41.0446 15.2127 40.7803 14.7273 40.7803 14.086C40.7803 13.436 41.0403 12.9073 41.5603 12.5C42.0803 12.0927 42.752 11.889 43.5753 11.889C44.3986 11.889 45.222 12.1663 46.0453 12.721L45.3173 14.021C44.7106 13.605 44.104 13.397 43.4973 13.397C42.8993 13.397 42.6003 13.5617 42.6003 13.891C42.6003 14.073 42.6956 14.216 42.8863 14.32C43.077 14.424 43.3933 14.5453 43.8353 14.684C44.2773 14.8227 44.5893 14.931 44.7713 15.009C44.962 15.0783 45.1873 15.191 45.4473 15.347C45.9326 15.6417 46.1753 16.1357 46.1753 16.829ZM49.6142 19H47.6642V12.006H49.6142V19ZM47.8202 11.122C47.6035 10.8967 47.4952 10.6237 47.4952 10.303C47.4952 9.98233 47.6035 9.71367 47.8202 9.497C48.0455 9.27167 48.3185 9.159 48.6392 9.159C48.9599 9.159 49.2285 9.27167 49.4452 9.497C49.6705 9.71367 49.7832 9.98233 49.7832 10.303C49.7832 10.6237 49.6705 10.8967 49.4452 11.122C49.2285 11.3387 48.9599 11.447 48.6392 11.447C48.3185 11.447 48.0455 11.3387 47.8202 11.122ZM56.3611 15.36C56.3611 14.7967 56.2051 14.3547 55.8931 14.034C55.5811 13.7133 55.1954 13.553 54.7361 13.553C54.2768 13.553 53.8781 13.7133 53.5401 14.034C53.2108 14.3547 53.0461 14.7923 53.0461 15.347C53.0461 15.9017 53.2064 16.3523 53.5271 16.699C53.8564 17.037 54.2551 17.206 54.7231 17.206C55.1911 17.206 55.5811 17.037 55.8931 16.699C56.2051 16.361 56.3611 15.9147 56.3611 15.36ZM56.6341 17.817C56.0188 18.5017 55.2518 18.844 54.3331 18.844C53.4231 18.844 52.6518 18.5363 52.0191 17.921C51.3951 17.297 51.0831 16.4693 51.0831 15.438C51.0831 14.398 51.4038 13.5487 52.0451 12.89C52.6951 12.2227 53.4361 11.889 54.2681 11.889C55.1001 11.889 55.7891 12.2313 56.3351 12.916V11.993H58.2851V18.09C58.2851 18.714 58.1768 19.2687 57.9601 19.754C57.7434 20.2393 57.4531 20.6207 57.0891 20.898C56.3698 21.47 55.5204 21.756 54.5411 21.756C54.0211 21.756 53.4881 21.6693 52.9421 21.496C52.4048 21.3313 51.9324 21.093 51.5251 20.781L52.2791 19.312C52.9204 19.7973 53.5964 20.04 54.3071 20.04C55.0264 20.04 55.5941 19.8623 56.0101 19.507C56.4261 19.1517 56.6341 18.5883 56.6341 17.817ZM62.081 15.1V19H60.131V12.006H62.081V12.786C62.6703 12.188 63.3333 11.889 64.07 11.889C64.8067 11.889 65.422 12.149 65.916 12.669C66.4187 13.189 66.67 13.8823 66.67 14.749V19H64.72V15.048C64.72 13.9733 64.3257 13.436 63.537 13.436C63.147 13.436 62.8047 13.579 62.51 13.865C62.224 14.1423 62.081 14.554 62.081 15.1ZM74.3747 19H72.5417V18.155C72.0391 18.7877 71.4151 19.104 70.6697 19.104C69.9331 19.104 69.3134 18.8917 68.8107 18.467C68.3081 18.0337 68.0567 17.4617 68.0567 16.751C68.0567 16.0317 68.3167 15.4943 68.8367 15.139C69.3567 14.7837 70.0674 14.606 70.9687 14.606H72.4247V14.567C72.4247 13.8217 72.0304 13.449 71.2417 13.449C70.9037 13.449 70.5441 13.5183 70.1627 13.657C69.7901 13.787 69.4737 13.9517 69.2137 14.151L68.3427 12.89C69.2614 12.2227 70.3101 11.889 71.4887 11.889C72.3381 11.889 73.0314 12.1013 73.5687 12.526C74.1061 12.9507 74.3747 13.6223 74.3747 14.541V19ZM72.4117 16.335V15.997H71.1897C70.4097 15.997 70.0197 16.2397 70.0197 16.725C70.0197 16.9763 70.1107 17.1713 70.2927 17.31C70.4834 17.44 70.7521 17.505 71.0987 17.505C71.4454 17.505 71.7487 17.401 72.0087 17.193C72.2774 16.9763 72.4117 16.6903 72.4117 16.335ZM78.9475 19.104C78.1242 19.104 77.3875 18.753 76.7375 18.051C76.0875 17.349 75.7625 16.478 75.7625 15.438C75.7625 14.398 76.0788 13.5487 76.7115 12.89C77.3442 12.2227 78.0852 11.889 78.9345 11.889C79.7838 11.889 80.4772 12.188 81.0145 12.786V9.354H82.9645V19H81.0145V18.077C80.4685 18.7617 79.7795 19.104 78.9475 19.104ZM77.7255 15.516C77.7255 16.0793 77.8945 16.543 78.2325 16.907C78.5705 17.2623 78.9648 17.44 79.4155 17.44C79.8662 17.44 80.2475 17.2623 80.5595 16.907C80.8802 16.543 81.0405 16.0793 81.0405 15.516C81.0405 14.944 80.8802 14.4717 80.5595 14.099C80.2475 13.7177 79.8618 13.527 79.4025 13.527C78.9432 13.527 78.5488 13.7177 78.2195 14.099C77.8902 14.4803 77.7255 14.9527 77.7255 15.516ZM86.3707 15.503C86.3707 16.075 86.531 16.543 86.8517 16.907C87.181 17.2623 87.597 17.44 88.0997 17.44C88.611 17.44 89.027 17.2623 89.3477 16.907C89.677 16.543 89.8417 16.075 89.8417 15.503C89.8417 14.931 89.677 14.463 89.3477 14.099C89.027 13.735 88.611 13.553 88.0997 13.553C87.597 13.553 87.181 13.735 86.8517 14.099C86.531 14.463 86.3707 14.931 86.3707 15.503ZM91.8047 15.503C91.8047 16.517 91.4537 17.3707 90.7517 18.064C90.0497 18.7573 89.1657 19.104 88.0997 19.104C87.0424 19.104 86.1627 18.7573 85.4607 18.064C84.7587 17.3707 84.4077 16.517 84.4077 15.503C84.4077 14.489 84.7587 13.6353 85.4607 12.942C86.1627 12.24 87.0424 11.889 88.0997 11.889C89.1657 11.889 90.0497 12.24 90.7517 12.942C91.4537 13.6353 91.8047 14.489 91.8047 15.503ZM98.4546 16.829C98.4546 17.5137 98.1989 18.064 97.6876 18.48C97.1849 18.896 96.5436 19.104 95.7636 19.104C95.2436 19.104 94.7019 19.013 94.1386 18.831C93.5753 18.6403 93.0683 18.363 92.6176 17.999L93.4756 16.777C94.2036 17.3403 94.9793 17.622 95.8026 17.622C96.0539 17.622 96.2533 17.5743 96.4006 17.479C96.5479 17.375 96.6216 17.2407 96.6216 17.076C96.6216 16.9113 96.5176 16.7597 96.3096 16.621C96.1103 16.4823 95.8156 16.3523 95.4256 16.231C95.0443 16.1097 94.7496 16.0057 94.5416 15.919C94.3423 15.8323 94.1126 15.7067 93.8526 15.542C93.3239 15.2127 93.0596 14.7273 93.0596 14.086C93.0596 13.436 93.3196 12.9073 93.8396 12.5C94.3596 12.0927 95.0313 11.889 95.8546 11.889C96.6779 11.889 97.5013 12.1663 98.3246 12.721L97.5966 14.021C96.9899 13.605 96.3833 13.397 95.7766 13.397C95.1786 13.397 94.8796 13.5617 94.8796 13.891C94.8796 14.073 94.9749 14.216 95.1656 14.32C95.3563 14.424 95.6726 14.5453 96.1146 14.684C96.5566 14.8227 96.8686 14.931 97.0506 15.009C97.2413 15.0783 97.4666 15.191 97.7266 15.347C98.2119 15.6417 98.4546 16.1357 98.4546 16.829Z" fill="white"/>
</svg>
