<svg width="73" height="105" viewBox="0 0 73 105" fill="none" xmlns="http://www.w3.org/2000/svg">
<rect x="1" y="1" width="70.6667" height="72" rx="17" stroke="#F7F7F7" stroke-width="2"/>
<path d="M47.6229 38.3684L40.7451 26.5146C40.6113 26.2842 40.3354 26.1594 40.0674 26.208L26.2839 28.7093C26.0239 28.7565 25.8309 28.9563 25.8047 29.2054C25.7785 29.4544 25.925 29.6968 26.1684 29.807L31.4413 32.1936L27.9461 39.459C27.629 40.118 27.6072 40.8777 27.8853 41.571C28.1635 42.2643 28.7189 42.8343 29.4292 43.1557L34.1899 45.3095C34.9002 45.631 35.7073 45.6775 36.4337 45.4388C37.1601 45.2001 37.7462 44.6958 38.0631 44.0367L41.5583 36.7713L46.8307 39.1578C47.0736 39.2664 47.3577 39.2193 47.5369 39.0407C47.7162 38.8621 47.7508 38.5916 47.6229 38.3684Z" fill="#4A4A4A"/>
<path d="M25.6998 45.6179C26.0634 44.856 26.9706 44.5263 27.7385 44.877L34.8562 48.1276C35.6426 48.4867 35.9821 49.4207 35.6097 50.201C35.2461 50.9629 34.3388 51.2926 33.5709 50.9419L26.4533 47.6913C25.6668 47.3322 25.3274 46.3982 25.6998 45.6179Z" fill="#4A4A4A"/>
<path d="M17.8961 92.4747C17.8961 93.7433 17.3425 94.5427 16.2351 94.8727L18.2481 97.6667H16.5981L14.7611 95.0817H13.0561V97.6667H11.7581V89.9777H14.6181C15.7915 89.9777 16.6311 90.1757 17.1371 90.5717C17.6431 90.9677 17.8961 91.602 17.8961 92.4747ZM14.6731 93.9047C15.4065 93.9047 15.9051 93.791 16.1691 93.5637C16.4331 93.3363 16.5651 92.9733 16.5651 92.4747C16.5651 91.9687 16.4295 91.624 16.1581 91.4407C15.8868 91.25 15.4028 91.1547 14.7061 91.1547H13.0561V93.9047H14.6731ZM25.0301 95.2797H20.443C20.4724 95.705 20.6667 96.0497 21.026 96.3137C21.3854 96.5703 21.796 96.6987 22.258 96.6987C22.9914 96.6987 23.5487 96.4677 23.93 96.0057L24.6341 96.7757C24.0034 97.4283 23.1821 97.7547 22.17 97.7547C21.3487 97.7547 20.6484 97.4833 20.069 96.9407C19.497 96.3907 19.211 95.6573 19.211 94.7407C19.211 93.8167 19.5044 93.0833 20.091 92.5407C20.6777 91.998 21.3671 91.7267 22.1591 91.7267C22.9584 91.7267 23.6367 91.9687 24.194 92.4527C24.7514 92.9293 25.0301 93.5893 25.0301 94.4327V95.2797ZM20.443 94.3117H23.7981C23.7981 93.8203 23.6441 93.4427 23.3361 93.1787C23.0281 92.9147 22.6467 92.7827 22.1921 92.7827C21.7447 92.7827 21.3414 92.922 20.982 93.2007C20.6227 93.472 20.443 93.8423 20.443 94.3117ZM28.9809 97.7547C28.1669 97.7547 27.4665 97.4797 26.8799 96.9297C26.2932 96.3723 25.9999 95.6463 25.9999 94.7517C25.9999 93.857 26.3042 93.131 26.9129 92.5737C27.5289 92.009 28.2769 91.7267 29.1569 91.7267C30.0369 91.7267 30.7812 92.031 31.3899 92.6397L30.6639 93.5307C30.1579 93.0907 29.6482 92.8707 29.1349 92.8707C28.6215 92.8707 28.1742 93.043 27.7929 93.3877C27.4189 93.725 27.2319 94.165 27.2319 94.7077C27.2319 95.243 27.4189 95.6977 27.7929 96.0717C28.1669 96.4457 28.6252 96.6327 29.1679 96.6327C29.7179 96.6327 30.2349 96.3833 30.7189 95.8847L31.4449 96.6767C30.7335 97.3953 29.9122 97.7547 28.9809 97.7547ZM37.4208 97.6667H36.2988V96.8857C35.8148 97.465 35.1658 97.7547 34.3518 97.7547C33.7431 97.7547 33.2371 97.5823 32.8338 97.2377C32.4378 96.893 32.2398 96.4347 32.2398 95.8627C32.2398 95.2833 32.4524 94.8507 32.8778 94.5647C33.3031 94.2787 33.8788 94.1357 34.6048 94.1357H36.1998V93.9157C36.1998 93.1383 35.7671 92.7497 34.9018 92.7497C34.3591 92.7497 33.7944 92.9477 33.2078 93.3437L32.6578 92.5737C33.3691 92.009 34.1758 91.7267 35.0778 91.7267C35.7671 91.7267 36.3281 91.9027 36.7608 92.2547C37.2008 92.5993 37.4208 93.1457 37.4208 93.8937V97.6667ZM36.1888 95.4887V94.9937H34.8028C33.9154 94.9937 33.4718 95.2723 33.4718 95.8297C33.4718 96.1157 33.5818 96.3357 33.8018 96.4897C34.0218 96.6363 34.3261 96.7097 34.7148 96.7097C35.1108 96.7097 35.4554 96.5997 35.7488 96.3797C36.0421 96.1597 36.1888 95.8627 36.1888 95.4887ZM42.2048 92.9697C41.5962 92.9697 41.1378 93.1677 40.8298 93.5637C40.5218 93.9597 40.3678 94.4913 40.3678 95.1587V97.6667H39.1358V91.8147H40.3678V92.9917C40.5658 92.625 40.8335 92.3243 41.1708 92.0897C41.5155 91.855 41.8785 91.734 42.2598 91.7267L42.2708 92.9697C42.2488 92.9697 42.2268 92.9697 42.2048 92.9697ZM48.9199 91.8147V96.9187C48.9199 97.9527 48.6376 98.7263 48.0729 99.2397C47.5156 99.7603 46.7969 100.021 45.9169 100.021C45.0369 100.021 44.2412 99.7457 43.5299 99.1957L44.1129 98.2607C44.6849 98.6933 45.2606 98.9097 45.8399 98.9097C46.4266 98.9097 46.8886 98.7593 47.2259 98.4587C47.5706 98.158 47.7429 97.6777 47.7429 97.0177V96.2697C47.5596 96.6143 47.2956 96.8893 46.9509 97.0947C46.6136 97.3 46.2322 97.4027 45.8069 97.4027C45.0296 97.4027 44.3916 97.1313 43.8929 96.5887C43.3942 96.046 43.1449 95.3713 43.1449 94.5647C43.1449 93.758 43.3942 93.0833 43.8929 92.5407C44.3916 91.998 45.0259 91.7267 45.7959 91.7267C46.5732 91.7267 47.2039 92.0457 47.6879 92.6837V91.8147H48.9199ZM44.3549 94.5207C44.3549 94.9973 44.5016 95.4117 44.7949 95.7637C45.0956 96.1083 45.4952 96.2807 45.9939 96.2807C46.4999 96.2807 46.9069 96.112 47.2149 95.7747C47.5302 95.4373 47.6879 95.0193 47.6879 94.5207C47.6879 94.0147 47.5302 93.5893 47.2149 93.2447C46.8996 92.8927 46.4926 92.7167 45.9939 92.7167C45.4952 92.7167 45.0956 92.8963 44.7949 93.2557C44.5016 93.615 44.3549 94.0367 44.3549 94.5207ZM55.4462 97.6667H54.3242V96.8857C53.8402 97.465 53.1912 97.7547 52.3772 97.7547C51.7685 97.7547 51.2625 97.5823 50.8592 97.2377C50.4632 96.893 50.2652 96.4347 50.2652 95.8627C50.2652 95.2833 50.4778 94.8507 50.9032 94.5647C51.3285 94.2787 51.9042 94.1357 52.6302 94.1357H54.2252V93.9157C54.2252 93.1383 53.7925 92.7497 52.9272 92.7497C52.3845 92.7497 51.8198 92.9477 51.2332 93.3437L50.6832 92.5737C51.3945 92.009 52.2012 91.7267 53.1032 91.7267C53.7925 91.7267 54.3535 91.9027 54.7862 92.2547C55.2262 92.5993 55.4462 93.1457 55.4462 93.8937V97.6667ZM54.2142 95.4887V94.9937H52.8282C51.9408 94.9937 51.4972 95.2723 51.4972 95.8297C51.4972 96.1157 51.6072 96.3357 51.8272 96.4897C52.0472 96.6363 52.3515 96.7097 52.7402 96.7097C53.1362 96.7097 53.4808 96.5997 53.7742 96.3797C54.0675 96.1597 54.2142 95.8627 54.2142 95.4887ZM60.2302 92.9697C59.6216 92.9697 59.1632 93.1677 58.8552 93.5637C58.5472 93.9597 58.3932 94.4913 58.3932 95.1587V97.6667H57.1612V91.8147H58.3932V92.9917C58.5912 92.625 58.8589 92.3243 59.1962 92.0897C59.5409 91.855 59.9039 91.734 60.2852 91.7267L60.2962 92.9697C60.2742 92.9697 60.2522 92.9697 60.2302 92.9697Z" fill="#3F354B"/>
</svg>
