<svg width="73" height="95" viewBox="0 0 73 95" fill="none" xmlns="http://www.w3.org/2000/svg">
<path d="M25.8388 86.311C27.2175 86.311 28.2772 86.6483 29.0178 87.323C29.7585 87.9903 30.1288 88.9217 30.1288 90.117C30.1288 91.3123 29.7695 92.2583 29.0508 92.955C28.3322 93.6517 27.2322 94 25.7508 94H23.1988V86.311H25.8388ZM28.8198 90.15C28.8198 88.39 27.8115 87.51 25.7948 87.51H24.4968V92.779H25.9378C26.8692 92.779 27.5805 92.559 28.0718 92.119C28.5705 91.6717 28.8198 91.0153 28.8198 90.15ZM36.3683 94H35.2463V93.219C34.7623 93.7983 34.1133 94.088 33.2993 94.088C32.6907 94.088 32.1847 93.9157 31.7813 93.571C31.3853 93.2263 31.1873 92.768 31.1873 92.196C31.1873 91.6167 31.4 91.184 31.8253 90.898C32.2507 90.612 32.8263 90.469 33.5523 90.469H35.1473V90.249C35.1473 89.4717 34.7147 89.083 33.8493 89.083C33.3067 89.083 32.742 89.281 32.1553 89.677L31.6053 88.907C32.3167 88.3423 33.1233 88.06 34.0253 88.06C34.7147 88.06 35.2757 88.236 35.7083 88.588C36.1483 88.9327 36.3683 89.479 36.3683 90.227V94ZM35.1363 91.822V91.327H33.7503C32.863 91.327 32.4193 91.6057 32.4193 92.163C32.4193 92.449 32.5293 92.669 32.7493 92.823C32.9693 92.9697 33.2737 93.043 33.6623 93.043C34.0583 93.043 34.403 92.933 34.6963 92.713C34.9897 92.493 35.1363 92.196 35.1363 91.822ZM42.2524 92.251C42.2524 92.8083 42.0507 93.2557 41.6474 93.593C41.244 93.923 40.727 94.088 40.0964 94.088C39.671 94.088 39.2274 94.011 38.7654 93.857C38.3107 93.703 37.9074 93.4867 37.5554 93.208L38.1494 92.251C38.8314 92.7643 39.4914 93.021 40.1294 93.021C40.408 93.021 40.628 92.9587 40.7894 92.834C40.9507 92.702 41.0314 92.537 41.0314 92.339C41.0314 92.0457 40.6427 91.7817 39.8654 91.547C39.8067 91.525 39.7627 91.5103 39.7334 91.503C38.516 91.173 37.9074 90.623 37.9074 89.853C37.9074 89.3103 38.1164 88.8777 38.5344 88.555C38.9597 88.225 39.5097 88.06 40.1844 88.06C40.859 88.06 41.497 88.258 42.0984 88.654L41.6364 89.567C41.1597 89.2517 40.6427 89.094 40.0854 89.094C39.792 89.094 39.5537 89.149 39.3704 89.259C39.187 89.3617 39.0954 89.5193 39.0954 89.732C39.0954 89.9227 39.1907 90.062 39.3814 90.15C39.5134 90.216 39.6967 90.2783 39.9314 90.337C40.1734 90.3957 40.386 90.4543 40.5694 90.513C40.7527 90.5717 40.9287 90.6377 41.0974 90.711C41.2734 90.7843 41.4604 90.887 41.6584 91.019C42.0544 91.283 42.2524 91.6937 42.2524 92.251ZM44.8798 90.832V94H43.6478V85.849H44.8798V89.215C45.0558 88.8557 45.3198 88.5733 45.6718 88.368C46.0312 88.1627 46.4162 88.06 46.8268 88.06C47.4868 88.06 48.0185 88.2617 48.4218 88.665C48.8325 89.0683 49.0378 89.6513 49.0378 90.414V94H47.8058V90.788C47.8058 89.71 47.3585 89.171 46.4638 89.171C46.0385 89.171 45.6682 89.314 45.3528 89.6C45.0375 89.8787 44.8798 90.2893 44.8798 90.832Z" fill="#3F354B"/>
<rect x="1" y="1" width="70.6667" height="72" rx="17" stroke="#F7F7F7" stroke-width="2"/>
<path d="M42.0942 21H27.886L26.7085 27.6496L39.5296 27.6652C45.844 27.6652 47.7111 29.9812 47.6579 33.8262C47.6304 35.796 46.7853 39.1256 46.4203 40.205C45.4472 43.0825 43.4486 46.3661 35.9542 46.353L23.4912 46.3478L22.3111 53H36.4875C41.4878 53 43.6161 52.4125 45.8663 51.3608C50.8589 49.0318 53.8297 44.0535 55.0192 37.5567C56.7919 27.8821 54.5846 21 42.0942 21Z" fill="#008DE4"/>
<path d="M21.608 33C17.9263 33 17.3987 35.9455 17.0503 37.7249C16.594 40.0561 16.4445 41 16.4445 41H30.8365C34.5182 41 35.0458 38.0545 35.3942 36.2751C35.8505 33.9439 36 33 36 33H21.608Z" fill="#008DE4"/>
</svg>
