<svg width="103" height="30" viewBox="0 0 103 30" fill="none" xmlns="http://www.w3.org/2000/svg">
<rect width="103" height="30" rx="15" fill="#A2AEBE"/>
<path d="M18.329 9.913C19.7243 9.913 20.7383 10.186 21.371 10.732C22.0123 11.2693 22.333 12.1013 22.333 13.228C22.333 14.346 22.0037 15.165 21.345 15.685C20.695 16.205 19.6983 16.465 18.355 16.465H17.146V19H15.118V9.913H18.329ZM18.511 14.71C19.187 14.71 19.6463 14.5757 19.889 14.307C20.1317 14.0297 20.253 13.631 20.253 13.111C20.253 12.5823 20.0927 12.2097 19.772 11.993C19.46 11.7677 18.9703 11.655 18.303 11.655H17.146V14.71H18.511ZM29.7789 17.986C28.9902 18.7313 28.0629 19.104 26.9969 19.104C25.9395 19.104 25.0642 18.779 24.3709 18.129C23.6775 17.4703 23.3309 16.5907 23.3309 15.49C23.3309 14.3893 23.6819 13.514 24.3839 12.864C25.0945 12.214 25.9309 11.889 26.8929 11.889C27.8549 11.889 28.6695 12.1793 29.3369 12.76C30.0129 13.3407 30.3509 14.138 30.3509 15.152V16.192H25.2549C25.3155 16.5733 25.5149 16.8853 25.8529 17.128C26.1909 17.3707 26.5722 17.492 26.9969 17.492C27.6815 17.492 28.2449 17.2623 28.6869 16.803L29.7789 17.986ZM28.3749 14.801C28.3315 14.385 28.1755 14.0643 27.9069 13.839C27.6382 13.6137 27.3089 13.501 26.9189 13.501C26.5375 13.501 26.1865 13.618 25.8659 13.852C25.5452 14.086 25.3589 14.4023 25.3069 14.801H28.3749ZM33.707 15.1V19H31.757V12.006H33.707V12.786C34.2963 12.188 34.9593 11.889 35.696 11.889C36.4327 11.889 37.048 12.149 37.542 12.669C38.0447 13.189 38.296 13.8823 38.296 14.749V19H36.346V15.048C36.346 13.9733 35.9517 13.436 35.163 13.436C34.773 13.436 34.4307 13.579 34.136 13.865C33.85 14.1423 33.707 14.554 33.707 15.1ZM42.8547 19.104C42.0314 19.104 41.2947 18.753 40.6447 18.051C39.9947 17.349 39.6697 16.478 39.6697 15.438C39.6697 14.398 39.9861 13.5487 40.6187 12.89C41.2514 12.2227 41.9924 11.889 42.8417 11.889C43.6911 11.889 44.3844 12.188 44.9217 12.786V9.354H46.8717V19H44.9217V18.077C44.3757 18.7617 43.6867 19.104 42.8547 19.104ZM41.6327 15.516C41.6327 16.0793 41.8017 16.543 42.1397 16.907C42.4777 17.2623 42.8721 17.44 43.3227 17.44C43.7734 17.44 44.1547 17.2623 44.4667 16.907C44.7874 16.543 44.9477 16.0793 44.9477 15.516C44.9477 14.944 44.7874 14.4717 44.4667 14.099C44.1547 13.7177 43.7691 13.527 43.3097 13.527C42.8504 13.527 42.4561 13.7177 42.1267 14.099C41.7974 14.4803 41.6327 14.9527 41.6327 15.516ZM50.6679 19H48.7179V12.006H50.6679V19ZM48.8739 11.122C48.6573 10.8967 48.5489 10.6237 48.5489 10.303C48.5489 9.98233 48.6573 9.71367 48.8739 9.497C49.0993 9.27167 49.3723 9.159 49.6929 9.159C50.0136 9.159 50.2823 9.27167 50.4989 9.497C50.7243 9.71367 50.8369 9.98233 50.8369 10.303C50.8369 10.6237 50.7243 10.8967 50.4989 11.122C50.2823 11.3387 50.0136 11.447 49.6929 11.447C49.3723 11.447 49.0993 11.3387 48.8739 11.122ZM58.5718 17.986C57.7832 18.7313 56.8558 19.104 55.7898 19.104C54.7325 19.104 53.8572 18.779 53.1638 18.129C52.4705 17.4703 52.1238 16.5907 52.1238 15.49C52.1238 14.3893 52.4748 13.514 53.1768 12.864C53.8875 12.214 54.7238 11.889 55.6858 11.889C56.6478 11.889 57.4625 12.1793 58.1298 12.76C58.8058 13.3407 59.1438 14.138 59.1438 15.152V16.192H54.0478C54.1085 16.5733 54.3078 16.8853 54.6458 17.128C54.9838 17.3707 55.3652 17.492 55.7898 17.492C56.4745 17.492 57.0378 17.2623 57.4798 16.803L58.5718 17.986ZM57.1678 14.801C57.1245 14.385 56.9685 14.0643 56.6998 13.839C56.4312 13.6137 56.1018 13.501 55.7118 13.501C55.3305 13.501 54.9795 13.618 54.6588 13.852C54.3382 14.086 54.1518 14.4023 54.0998 14.801H57.1678ZM62.5 15.1V19H60.55V12.006H62.5V12.786C63.0893 12.188 63.7523 11.889 64.489 11.889C65.2256 11.889 65.841 12.149 66.335 12.669C66.8376 13.189 67.089 13.8823 67.089 14.749V19H65.139V15.048C65.139 13.9733 64.7446 13.436 63.956 13.436C63.566 13.436 63.2236 13.579 62.929 13.865C62.643 14.1423 62.5 14.554 62.5 15.1ZM71.0781 13.41V16.543C71.0781 16.8117 71.1475 17.024 71.2861 17.18C71.4248 17.3273 71.5895 17.401 71.7801 17.401C72.1441 17.401 72.4518 17.2363 72.7031 16.907L73.4311 18.272C72.8245 18.8267 72.1831 19.104 71.5071 19.104C70.8398 19.104 70.2721 18.883 69.8041 18.441C69.3448 17.999 69.1151 17.3967 69.1151 16.634V13.41H68.2961V12.006H69.1151V9.913H71.0781V12.006H72.7681V13.41H71.0781ZM80.5347 17.986C79.746 18.7313 78.8187 19.104 77.7527 19.104C76.6954 19.104 75.82 18.779 75.1267 18.129C74.4334 17.4703 74.0867 16.5907 74.0867 15.49C74.0867 14.3893 74.4377 13.514 75.1397 12.864C75.8504 12.214 76.6867 11.889 77.6487 11.889C78.6107 11.889 79.4254 12.1793 80.0927 12.76C80.7687 13.3407 81.1067 14.138 81.1067 15.152V16.192H76.0107C76.0714 16.5733 76.2707 16.8853 76.6087 17.128C76.9467 17.3707 77.328 17.492 77.7527 17.492C78.4374 17.492 79.0007 17.2623 79.4427 16.803L80.5347 17.986ZM79.1307 14.801C79.0874 14.385 78.9314 14.0643 78.6627 13.839C78.394 13.6137 78.0647 13.501 77.6747 13.501C77.2934 13.501 76.9424 13.618 76.6217 13.852C76.301 14.086 76.1147 14.4023 76.0627 14.801H79.1307ZM87.7778 16.829C87.7778 17.5137 87.5222 18.064 87.0108 18.48C86.5082 18.896 85.8668 19.104 85.0868 19.104C84.5668 19.104 84.0252 19.013 83.4618 18.831C82.8985 18.6403 82.3915 18.363 81.9408 17.999L82.7988 16.777C83.5268 17.3403 84.3025 17.622 85.1258 17.622C85.3772 17.622 85.5765 17.5743 85.7238 17.479C85.8712 17.375 85.9448 17.2407 85.9448 17.076C85.9448 16.9113 85.8408 16.7597 85.6328 16.621C85.4335 16.4823 85.1388 16.3523 84.7488 16.231C84.3675 16.1097 84.0728 16.0057 83.8648 15.919C83.6655 15.8323 83.4358 15.7067 83.1758 15.542C82.6472 15.2127 82.3828 14.7273 82.3828 14.086C82.3828 13.436 82.6428 12.9073 83.1628 12.5C83.6828 12.0927 84.3545 11.889 85.1778 11.889C86.0012 11.889 86.8245 12.1663 87.6478 12.721L86.9198 14.021C86.3132 13.605 85.7065 13.397 85.0998 13.397C84.5018 13.397 84.2028 13.5617 84.2028 13.891C84.2028 14.073 84.2982 14.216 84.4888 14.32C84.6795 14.424 84.9958 14.5453 85.4378 14.684C85.8798 14.8227 86.1918 14.931 86.3738 15.009C86.5645 15.0783 86.7898 15.191 87.0498 15.347C87.5352 15.6417 87.7778 16.1357 87.7778 16.829Z" fill="white"/>
</svg>
