<svg width="79" height="107" viewBox="0 0 79 107" fill="none" xmlns="http://www.w3.org/2000/svg">
<path d="M20.5575 93H17.1915V85.311H20.1835C20.7042 85.311 21.1515 85.3733 21.5255 85.498C21.9068 85.6227 22.1892 85.7913 22.3725 86.004C22.7245 86.4 22.9005 86.8473 22.9005 87.346C22.9005 87.9473 22.7098 88.3947 22.3285 88.688C22.1892 88.7907 22.0938 88.8567 22.0425 88.886C21.9912 88.908 21.8995 88.9483 21.7675 89.007C22.2442 89.1097 22.6218 89.326 22.9005 89.656C23.1865 89.9787 23.3295 90.382 23.3295 90.866C23.3295 91.4013 23.1462 91.8743 22.7795 92.285C22.3468 92.7617 21.6062 93 20.5575 93ZM18.4895 88.501H20.1395C21.0782 88.501 21.5475 88.182 21.5475 87.544C21.5475 87.1773 21.4338 86.9133 21.2065 86.752C20.9792 86.5907 20.6272 86.51 20.1505 86.51H18.4895V88.501ZM18.4895 91.801H20.5245C21.0012 91.801 21.3642 91.7277 21.6135 91.581C21.8702 91.427 21.9985 91.141 21.9985 90.723C21.9985 90.041 21.4522 89.7 20.3595 89.7H18.4895V91.801ZM26.0141 93H24.7821V87.148H26.0141V93ZM24.8591 85.982C24.7051 85.828 24.6281 85.6447 24.6281 85.432C24.6281 85.2193 24.7051 85.036 24.8591 84.882C25.0131 84.728 25.1964 84.651 25.4091 84.651C25.6218 84.651 25.8051 84.728 25.9591 84.882C26.1131 85.036 26.1901 85.2193 26.1901 85.432C26.1901 85.6447 26.1131 85.828 25.9591 85.982C25.8051 86.136 25.6218 86.213 25.4091 86.213C25.1964 86.213 25.0131 86.136 24.8591 85.982ZM29.0327 93H27.8007V84.838H29.0327V93ZM32.0512 93H30.8192V84.838H32.0512V93ZM39.2828 90.613H34.6958C34.7251 91.0383 34.9194 91.383 35.2788 91.647C35.6381 91.9037 36.0488 92.032 36.5108 92.032C37.2441 92.032 37.8014 91.801 38.1828 91.339L38.8868 92.109C38.2561 92.7617 37.4348 93.088 36.4228 93.088C35.6014 93.088 34.9011 92.8167 34.3218 92.274C33.7498 91.724 33.4638 90.9907 33.4638 90.074C33.4638 89.15 33.7571 88.4167 34.3438 87.874C34.9304 87.3313 35.6198 87.06 36.4118 87.06C37.2111 87.06 37.8894 87.302 38.4468 87.786C39.0041 88.2627 39.2828 88.9227 39.2828 89.766V90.613ZM34.6958 89.645H38.0508C38.0508 89.1537 37.8968 88.776 37.5888 88.512C37.2808 88.248 36.8994 88.116 36.4448 88.116C35.9974 88.116 35.5941 88.2553 35.2348 88.534C34.8754 88.8053 34.6958 89.1757 34.6958 89.645ZM42.1126 88.138V91.108C42.1126 91.3867 42.1859 91.6103 42.3326 91.779C42.4793 91.9403 42.6846 92.021 42.9486 92.021C43.2126 92.021 43.4656 91.8927 43.7076 91.636L44.2136 92.505C43.7809 92.8937 43.3006 93.088 42.7726 93.088C42.2519 93.088 41.8046 92.9083 41.4306 92.549C41.0639 92.1823 40.8806 91.691 40.8806 91.075V88.138H40.1436V87.148H40.8806V85.311H42.1126V87.148H43.6526V88.138H42.1126ZM50.6373 90.613H46.0503C46.0796 91.0383 46.2739 91.383 46.6333 91.647C46.9926 91.9037 47.4033 92.032 47.8653 92.032C48.5986 92.032 49.1559 91.801 49.5373 91.339L50.2413 92.109C49.6106 92.7617 48.7893 93.088 47.7773 93.088C46.9559 93.088 46.2556 92.8167 45.6763 92.274C45.1043 91.724 44.8183 90.9907 44.8183 90.074C44.8183 89.15 45.1116 88.4167 45.6983 87.874C46.2849 87.3313 46.9743 87.06 47.7663 87.06C48.5656 87.06 49.2439 87.302 49.8013 87.786C50.3586 88.2627 50.6373 88.9227 50.6373 89.766V90.613ZM46.0503 89.645H49.4053C49.4053 89.1537 49.2513 88.776 48.9433 88.512C48.6353 88.248 48.2539 88.116 47.7993 88.116C47.3519 88.116 46.9486 88.2553 46.5893 88.534C46.2299 88.8053 46.0503 89.1757 46.0503 89.645ZM55.0611 88.303C54.4524 88.303 53.9941 88.501 53.6861 88.897C53.3781 89.293 53.2241 89.8247 53.2241 90.492V93H51.9921V87.148H53.2241V88.325C53.4221 87.9583 53.6897 87.6577 54.0271 87.423C54.3717 87.1883 54.7347 87.0673 55.1161 87.06L55.1271 88.303C55.1051 88.303 55.0831 88.303 55.0611 88.303ZM61.0514 93H59.9294V92.219C59.4454 92.7983 58.7964 93.088 57.9824 93.088C57.3738 93.088 56.8678 92.9157 56.4644 92.571C56.0684 92.2263 55.8704 91.768 55.8704 91.196C55.8704 90.6167 56.0831 90.184 56.5084 89.898C56.9338 89.612 57.5094 89.469 58.2354 89.469H59.8304V89.249C59.8304 88.4717 59.3978 88.083 58.5324 88.083C57.9898 88.083 57.4251 88.281 56.8384 88.677L56.2884 87.907C56.9998 87.3423 57.8064 87.06 58.7084 87.06C59.3978 87.06 59.9588 87.236 60.3914 87.588C60.8314 87.9327 61.0514 88.479 61.0514 89.227V93ZM59.8194 90.822V90.327H58.4334C57.5461 90.327 57.1024 90.6057 57.1024 91.163C57.1024 91.449 57.2124 91.669 57.4324 91.823C57.6524 91.9697 57.9568 92.043 58.3454 92.043C58.7414 92.043 59.0861 91.933 59.3794 91.713C59.6728 91.493 59.8194 91.196 59.8194 90.822ZM26.5819 104.823C27.0292 104.823 27.4142 104.75 27.7369 104.603C28.0595 104.449 28.3969 104.207 28.7489 103.877L29.5849 104.735C28.7709 105.637 27.7809 106.088 26.6149 106.088C25.4562 106.088 24.4919 105.714 23.7219 104.966C22.9592 104.218 22.5779 103.272 22.5779 102.128C22.5779 100.984 22.9665 100.031 23.7439 99.268C24.5285 98.5053 25.5149 98.124 26.7029 98.124C27.8982 98.124 28.8955 98.564 29.6949 99.444L28.8699 100.346C28.5032 99.994 28.1549 99.7483 27.8249 99.609C27.5022 99.4697 27.1209 99.4 26.6809 99.4C25.9035 99.4 25.2509 99.653 24.7229 100.159C24.1949 100.658 23.9309 101.299 23.9309 102.084C23.9309 102.861 24.1912 103.514 24.7119 104.042C25.2399 104.563 25.8632 104.823 26.5819 104.823ZM32.1993 104.46C32.5513 104.812 32.995 104.988 33.5303 104.988C34.0657 104.988 34.5057 104.812 34.8503 104.46C35.2023 104.101 35.3783 103.639 35.3783 103.074C35.3783 102.509 35.2023 102.051 34.8503 101.699C34.5057 101.34 34.0657 101.16 33.5303 101.16C32.995 101.16 32.5513 101.34 32.1993 101.699C31.8547 102.051 31.6823 102.509 31.6823 103.074C31.6823 103.639 31.8547 104.101 32.1993 104.46ZM35.7303 105.219C35.1437 105.798 34.4103 106.088 33.5303 106.088C32.6503 106.088 31.917 105.798 31.3303 105.219C30.7437 104.632 30.4503 103.917 30.4503 103.074C30.4503 102.231 30.7437 101.519 31.3303 100.94C31.917 100.353 32.6503 100.06 33.5303 100.06C34.4103 100.06 35.1437 100.353 35.7303 100.94C36.317 101.519 36.6103 102.231 36.6103 103.074C36.6103 103.917 36.317 104.632 35.7303 105.219ZM41.1461 100.06C41.9308 100.06 42.6018 100.331 43.1591 100.874C43.7165 101.417 43.9951 102.139 43.9951 103.041C43.9951 103.943 43.7165 104.676 43.1591 105.241C42.6091 105.806 41.9638 106.088 41.2231 106.088C40.4898 106.088 39.8298 105.765 39.2431 105.12V106H38.0111V97.838H39.2431V101.171C39.7271 100.43 40.3615 100.06 41.1461 100.06ZM39.2211 103.085C39.2211 103.642 39.3898 104.101 39.7271 104.46C40.0645 104.812 40.4751 104.988 40.9591 104.988C41.4431 104.988 41.8648 104.812 42.2241 104.46C42.5835 104.108 42.7631 103.653 42.7631 103.096C42.7631 102.531 42.5871 102.066 42.2351 101.699C41.8831 101.325 41.4615 101.138 40.9701 101.138C40.4788 101.138 40.0645 101.325 39.7271 101.699C39.3898 102.066 39.2211 102.528 39.2211 103.085ZM48.4707 101.303C47.8621 101.303 47.4037 101.501 47.0957 101.897C46.7877 102.293 46.6337 102.825 46.6337 103.492V106H45.4017V100.148H46.6337V101.325C46.8317 100.958 47.0994 100.658 47.4367 100.423C47.7814 100.188 48.1444 100.067 48.5257 100.06L48.5367 101.303C48.5147 101.303 48.4927 101.303 48.4707 101.303ZM53.8658 103.316V100.148H55.0978V106H53.8658V104.933C53.6678 105.292 53.3928 105.575 53.0408 105.78C52.6961 105.985 52.3221 106.088 51.9188 106.088C51.2588 106.088 50.7235 105.886 50.3128 105.483C49.9095 105.08 49.7078 104.497 49.7078 103.734V100.148H50.9398V103.36C50.9398 104.438 51.3871 104.977 52.2818 104.977C52.7071 104.977 53.0775 104.838 53.3928 104.559C53.7081 104.273 53.8658 103.859 53.8658 103.316Z" fill="#3F354B"/>
<rect x="7" y="1" width="70.6667" height="72" rx="17" stroke="#F7F7F7" stroke-width="2"/>
<path fill-rule="evenodd" clip-rule="evenodd" d="M42.4457 13.8399C25.3958 13.8399 16.8914 24.0011 16.8914 36.5355C16.8914 45.9167 21.6551 53.9681 31.2 57.4249C30.9093 57.7898 30.5963 58.1438 30.256 58.4842C29.9171 58.8231 29.5696 59.1383 29.2127 59.4254C28.3572 60.1234 27.4478 60.6774 26.4873 61.0905C27.8845 61.6956 29.5315 62 31.4295 62C31.6324 62 31.8338 61.995 32.0324 61.9871C33.4966 61.9173 34.8694 61.5956 36.1465 61.0243L36.1479 61.0221C37.202 60.5501 38.187 59.9061 39.1115 59.0936C40.1843 59.1836 41.2952 59.2311 42.4457 59.2311C59.674 59.2311 68 49.0699 68 36.5355C68 24.0011 60.0489 13.8399 42.4457 13.8399Z" fill="#1CCE28"/>
<path fill-rule="evenodd" clip-rule="evenodd" d="M53.495 39.1786C52.6658 36.8943 50.1029 33.0214 42.3206 34.0558C41.3604 34.2306 40.47 34.071 39.6436 33.5785C38.8187 33.0867 38.3277 32.3787 38.1691 31.456C38.0113 30.5347 38.2318 29.6984 38.8321 28.9461C39.4302 28.1946 40.222 27.7296 41.2061 27.5512C42.1896 27.3727 43.0878 27.5309 43.9007 28.0256C44.1762 28.1939 44.4136 28.3883 44.6137 28.6059C44.6271 28.6168 44.639 28.6277 44.6482 28.6393C45.0018 29.044 45.526 29.1471 45.869 29.1043L49.247 28.4913C49.6704 28.376 50.4601 27.9008 50.2931 26.8693C49.7021 25.6013 48.7081 24.5756 47.3111 23.7922C46.0726 23.098 44.7102 22.7135 43.2252 22.6381L42.9236 20.8804C42.7954 20.1311 42.0945 19.6255 41.366 19.7582L38.4756 20.2827C37.7472 20.4147 37.2554 21.1365 37.3844 21.8865L37.6852 23.6406C36.3058 24.2361 35.1448 25.0797 34.2015 26.1715C32.6996 27.911 32.1226 29.8144 32.4685 31.8811L32.4833 31.8789C32.6482 33.1853 33.3682 34.7029 34.6876 36.0216C35.018 36.3299 35.5598 36.8072 35.7465 36.9342C36.2234 37.2904 36.7539 37.6204 37.34 37.9135C39.9973 39.2417 42.4242 38.8732 42.9948 38.7586C43.0364 38.7506 43.0772 38.7397 43.1202 38.731C44.2044 38.5344 45.2294 38.6701 46.1938 39.1372C47.1575 39.6051 47.7401 40.4234 47.9402 41.592C48.1396 42.7599 47.8507 43.7304 47.073 44.5008C46.2945 45.2712 45.3886 45.7507 44.3544 45.9378C43.3203 46.1257 42.3093 45.9944 41.3231 45.5447C40.6764 45.2509 40.1994 44.8019 39.8902 44.199C39.5527 43.5701 38.9117 43.4374 38.4643 43.5172L35.1737 44.1149C34.6165 44.2179 33.8852 44.7373 34.0698 45.8508C34.6883 47.5221 35.8296 48.8641 37.4992 49.8738C38.9434 50.7458 40.5806 51.1999 42.4108 51.2398L42.7109 52.9938C42.8391 53.7431 43.5401 54.2487 44.2685 54.116L47.1603 53.5915C47.8881 53.4595 48.3791 52.737 48.2509 51.9876L47.9501 50.2322C49.6528 49.5503 51.0378 48.5485 52.1022 47.2225C53.6887 45.2472 54.2776 43.066 53.8683 40.6758C53.7782 40.1513 53.6542 39.6515 53.495 39.1786Z" fill="white"/>
</svg>
