<svg width="134" height="35" viewBox="0 0 134 35" fill="none" xmlns="http://www.w3.org/2000/svg">
<path d="M3.502 4.67H5.423V5.707C5.423 6.16033 5.36633 6.50033 5.253 6.727C5.151 6.94233 4.91867 7.23133 4.556 7.594L3.315 8.835C3.05433 9.11833 2.924 9.46967 2.924 9.889C2.924 10.3083 3.06 10.6597 3.332 10.943C3.604 11.215 3.95533 11.351 4.386 11.351C4.81667 11.351 5.17367 11.2207 5.457 10.96C5.75167 10.688 5.92167 10.331 5.967 9.889H8.024C7.91067 10.8977 7.514 11.691 6.834 12.269C6.16533 12.8357 5.32667 13.119 4.318 13.119C3.30933 13.119 2.48767 12.847 1.853 12.303C1.21833 11.7477 0.901 10.977 0.901 9.991C0.901 9.311 1.088 8.74433 1.462 8.291C1.67733 8.019 1.84167 7.82633 1.955 7.713C2.06833 7.59967 2.21567 7.458 2.397 7.288C2.58967 7.10667 2.74833 6.95367 2.873 6.829C3.009 6.693 3.11667 6.574 3.196 6.472C3.4 6.234 3.502 5.88833 3.502 5.435V4.67ZM4.42 0.896C4.78267 0.896 5.09433 1.02067 5.355 1.27C5.61567 1.508 5.746 1.80267 5.746 2.154C5.746 2.494 5.61567 2.78867 5.355 3.038C5.10567 3.28733 4.79967 3.412 4.437 3.412C4.08567 3.412 3.77967 3.293 3.519 3.055C3.25833 2.80567 3.128 2.511 3.128 2.171C3.128 1.81967 3.25267 1.51933 3.502 1.27C3.76267 1.02067 4.06867 0.896 4.42 0.896ZM14.3618 1.117C16.4925 1.117 18.1301 1.63833 19.2748 2.681C20.4195 3.71233 20.9918 5.15167 20.9918 6.999C20.9918 8.84633 20.4365 10.3083 19.3258 11.385C18.2151 12.4617 16.5151 13 14.2258 13H10.2818V1.117H14.3618ZM18.9688 7.05C18.9688 4.33 17.4105 2.97 14.2938 2.97H12.2878V11.113H14.5148C15.9541 11.113 17.0535 10.773 17.8128 10.093C18.5835 9.40167 18.9688 8.38733 18.9688 7.05ZM25.4157 10.62C25.9597 11.164 26.6453 11.436 27.4727 11.436C28.3 11.436 28.98 11.164 29.5127 10.62C30.0567 10.0647 30.3287 9.35067 30.3287 8.478C30.3287 7.60533 30.0567 6.897 29.5127 6.353C28.98 5.79767 28.3 5.52 27.4727 5.52C26.6453 5.52 25.9597 5.79767 25.4157 6.353C24.883 6.897 24.6167 7.60533 24.6167 8.478C24.6167 9.35067 24.883 10.0647 25.4157 10.62ZM30.8727 11.793C29.966 12.6883 28.8327 13.136 27.4727 13.136C26.1127 13.136 24.9793 12.6883 24.0727 11.793C23.166 10.8863 22.7127 9.78133 22.7127 8.478C22.7127 7.17467 23.166 6.07533 24.0727 5.18C24.9793 4.27333 26.1127 3.82 27.4727 3.82C28.8327 3.82 29.966 4.27333 30.8727 5.18C31.7793 6.07533 32.2327 7.17467 32.2327 8.478C32.2327 9.78133 31.7793 10.8863 30.8727 11.793ZM28.3397 2.8H26.6057L28.4077 0.334999L30.4137 1.168L28.3397 2.8ZM36.3015 8.104V13H34.3975V3.956H36.3015V5.605C36.6075 5.04967 37.0268 4.61333 37.5595 4.296C38.1035 3.97867 38.6872 3.82 39.3105 3.82C40.3305 3.82 41.1522 4.13167 41.7755 4.755C42.4102 5.37833 42.7275 6.27933 42.7275 7.458V13H40.8235V8.036C40.8235 6.37 40.1322 5.537 38.7495 5.537C38.0922 5.537 37.5198 5.758 37.0325 6.2C36.5452 6.63067 36.3015 7.26533 36.3015 8.104ZM49.0767 13.136C47.9321 13.136 46.9347 12.7053 46.0847 11.844C45.2347 10.9827 44.8097 9.84933 44.8097 8.444C44.8097 7.03867 45.2461 5.91667 46.1187 5.078C46.9914 4.23933 48.0284 3.82 49.2297 3.82C50.4424 3.82 51.4171 4.33 52.1537 5.35V0.385999H54.0577V13H52.1537V11.64C51.4511 12.6373 50.4254 13.136 49.0767 13.136ZM46.7137 8.529C46.7137 9.39033 46.9914 10.093 47.5467 10.637C48.1021 11.181 48.7537 11.453 49.5017 11.453C50.2497 11.453 50.8844 11.181 51.4057 10.637C51.9271 10.0817 52.1877 9.37333 52.1877 8.512C52.1877 7.65067 51.9271 6.931 51.4057 6.353C50.8844 5.775 50.2441 5.486 49.4847 5.486C48.7254 5.486 48.0737 5.775 47.5297 6.353C46.9857 6.931 46.7137 7.65633 46.7137 8.529ZM65.2246 9.311H58.1356C58.181 9.96833 58.4813 10.501 59.0366 10.909C59.592 11.3057 60.2266 11.504 60.9406 11.504C62.074 11.504 62.9353 11.147 63.5246 10.433L64.6126 11.623C63.638 12.6317 62.3686 13.136 60.8046 13.136C59.5353 13.136 58.453 12.7167 57.5576 11.878C56.6736 11.028 56.2316 9.89467 56.2316 8.478C56.2316 7.05 56.685 5.91667 57.5916 5.078C58.4983 4.23933 59.5636 3.82 60.7876 3.82C62.023 3.82 63.0713 4.194 63.9326 4.942C64.794 5.67867 65.2246 6.69867 65.2246 8.002V9.311ZM58.1356 7.815H63.3206C63.3206 7.05567 63.0826 6.472 62.6066 6.064C62.1306 5.656 61.5413 5.452 60.8386 5.452C60.1473 5.452 59.524 5.66733 58.9686 6.098C58.4133 6.51733 58.1356 7.08967 58.1356 7.815ZM75.6724 13.136C74.5391 13.136 73.5418 12.6997 72.6804 11.827C71.8304 10.9543 71.4054 9.821 71.4054 8.427C71.4054 7.033 71.8361 5.91667 72.6974 5.078C73.5588 4.23933 74.5958 3.82 75.8084 3.82C77.0211 3.82 78.0014 4.39233 78.7494 5.537V3.956H80.6534V16.298H78.7494V11.64C77.8428 12.6373 76.8171 13.136 75.6724 13.136ZM73.3094 8.512C73.3094 9.37333 73.5871 10.076 74.1424 10.62C74.6978 11.164 75.3494 11.436 76.0974 11.436C76.8454 11.436 77.4801 11.164 78.0014 10.62C78.5228 10.0647 78.7834 9.35633 78.7834 8.495C78.7834 7.63367 78.5228 6.91967 78.0014 6.353C77.4801 5.775 76.8398 5.486 76.0804 5.486C75.3211 5.486 74.6694 5.775 74.1254 6.353C73.5814 6.91967 73.3094 7.63933 73.3094 8.512ZM89.7293 8.852V3.956H91.6333V13H89.7293V11.351C89.4233 11.9063 88.9983 12.3427 88.4543 12.66C87.9217 12.9773 87.3437 13.136 86.7203 13.136C85.7003 13.136 84.873 12.8243 84.2383 12.201C83.615 11.5777 83.3033 10.6767 83.3033 9.498V3.956H85.2073V8.92C85.2073 10.586 85.8987 11.419 87.2813 11.419C87.9387 11.419 88.511 11.2037 88.9983 10.773C89.4857 10.331 89.7293 9.69067 89.7293 8.852ZM96.2996 13H94.3956V3.956H96.2996V13ZM94.5146 2.154C94.2766 1.916 94.1576 1.63267 94.1576 1.304C94.1576 0.975333 94.2766 0.692 94.5146 0.453999C94.7526 0.215999 95.0359 0.0969989 95.3646 0.0969989C95.6932 0.0969989 95.9766 0.215999 96.2146 0.453999C96.4526 0.692 96.5716 0.975333 96.5716 1.304C96.5716 1.63267 96.4526 1.916 96.2146 2.154C95.9766 2.392 95.6932 2.511 95.3646 2.511C95.0359 2.511 94.7526 2.392 94.5146 2.154ZM107.476 9.311H100.387C100.432 9.96833 100.732 10.501 101.288 10.909C101.843 11.3057 102.478 11.504 103.192 11.504C104.325 11.504 105.186 11.147 105.776 10.433L106.864 11.623C105.889 12.6317 104.62 13.136 103.056 13.136C101.786 13.136 100.704 12.7167 99.8086 11.878C98.9246 11.028 98.4826 9.89467 98.4826 8.478C98.4826 7.05 98.9359 5.91667 99.8426 5.078C100.749 4.23933 101.815 3.82 103.039 3.82C104.274 3.82 105.322 4.194 106.184 4.942C107.045 5.67867 107.476 6.69867 107.476 8.002V9.311ZM100.387 7.815H105.572C105.572 7.05567 105.334 6.472 104.858 6.064C104.382 5.656 103.792 5.452 103.09 5.452C102.398 5.452 101.775 5.66733 101.22 6.098C100.664 6.51733 100.387 7.08967 100.387 7.815ZM114.312 5.741C113.372 5.741 112.663 6.047 112.187 6.659C111.711 7.271 111.473 8.09267 111.473 9.124V13H109.569V3.956H111.473V5.775C111.779 5.20833 112.193 4.74367 112.714 4.381C113.247 4.01833 113.808 3.83133 114.397 3.82L114.414 5.741C114.38 5.741 114.346 5.741 114.312 5.741ZM124.741 9.311H117.652C117.698 9.96833 117.998 10.501 118.553 10.909C119.109 11.3057 119.743 11.504 120.457 11.504C121.591 11.504 122.452 11.147 123.041 10.433L124.129 11.623C123.155 12.6317 121.885 13.136 120.321 13.136C119.052 13.136 117.97 12.7167 117.074 11.878C116.19 11.028 115.748 9.89467 115.748 8.478C115.748 7.05 116.202 5.91667 117.108 5.078C118.015 4.23933 119.08 3.82 120.304 3.82C121.54 3.82 122.588 4.194 123.449 4.942C124.311 5.67867 124.741 6.69867 124.741 8.002V9.311ZM117.652 7.815H122.837C122.837 7.05567 122.599 6.472 122.123 6.064C121.647 5.656 121.058 5.452 120.355 5.452C119.664 5.452 119.041 5.66733 118.485 6.098C117.93 6.51733 117.652 7.08967 117.652 7.815ZM133.278 10.297C133.278 11.1583 132.966 11.8497 132.343 12.371C131.72 12.881 130.921 13.136 129.946 13.136C129.289 13.136 128.603 13.017 127.889 12.779C127.186 12.541 126.563 12.2067 126.019 11.776L126.937 10.297C127.991 11.0903 129.011 11.487 129.997 11.487C130.428 11.487 130.768 11.3907 131.017 11.198C131.266 10.994 131.391 10.739 131.391 10.433C131.391 9.97967 130.79 9.57167 129.589 9.209C129.498 9.175 129.43 9.15233 129.385 9.141C127.504 8.631 126.563 7.781 126.563 6.591C126.563 5.75233 126.886 5.08367 127.532 4.585C128.189 4.075 129.039 3.82 130.082 3.82C131.125 3.82 132.111 4.126 133.04 4.738L132.326 6.149C131.589 5.66167 130.79 5.418 129.929 5.418C129.476 5.418 129.107 5.503 128.824 5.673C128.541 5.83167 128.399 6.07533 128.399 6.404C128.399 6.69867 128.546 6.914 128.841 7.05C129.045 7.152 129.328 7.24833 129.691 7.339C130.065 7.42967 130.394 7.52033 130.677 7.611C130.96 7.70167 131.232 7.80367 131.493 7.917C131.765 8.03033 132.054 8.189 132.36 8.393C132.972 8.801 133.278 9.43567 133.278 10.297ZM14.457 30.311H7.36804C7.41337 30.9683 7.71371 31.501 8.26904 31.909C8.82437 32.3057 9.45904 32.504 10.173 32.504C11.3064 32.504 12.1677 32.147 12.757 31.433L13.845 32.623C12.8704 33.6317 11.601 34.136 10.037 34.136C8.76771 34.136 7.68537 33.7167 6.79004 32.878C5.90604 32.028 5.46404 30.8947 5.46404 29.478C5.46404 28.05 5.91737 26.9167 6.82404 26.078C7.73071 25.2393 8.79604 24.82 10.02 24.82C11.2554 24.82 12.3037 25.194 13.165 25.942C14.0264 26.6787 14.457 27.6987 14.457 29.002V30.311ZM7.36804 28.815H12.553C12.553 28.0557 12.315 27.472 11.839 27.064C11.363 26.656 10.7737 26.452 10.071 26.452C9.37971 26.452 8.75637 26.6673 8.20104 27.098C7.64571 27.5173 7.36804 28.0897 7.36804 28.815ZM18.4548 29.104V34H16.5508V24.956H18.4548V26.605C18.7608 26.0497 19.1802 25.6133 19.7128 25.296C20.2568 24.9787 20.8405 24.82 21.4638 24.82C22.4838 24.82 23.3055 25.1317 23.9288 25.755C24.5635 26.3783 24.8808 27.2793 24.8808 28.458V34H22.9768V29.036C22.9768 27.37 22.2855 26.537 20.9028 26.537C20.2455 26.537 19.6732 26.758 19.1858 27.2C18.6985 27.6307 18.4548 28.2653 18.4548 29.104ZM29.8385 34L26.2005 24.956H28.1725L30.9265 31.79L33.6805 24.956H35.6525L32.0145 34H29.8385ZM39.074 34H37.17V24.956H39.074V34ZM37.289 23.154C37.051 22.916 36.932 22.6327 36.932 22.304C36.932 21.9753 37.051 21.692 37.289 21.454C37.527 21.216 37.8103 21.097 38.139 21.097C38.4676 21.097 38.751 21.216 38.989 21.454C39.227 21.692 39.346 21.9753 39.346 22.304C39.346 22.6327 39.227 22.916 38.989 23.154C38.751 23.392 38.4676 23.511 38.139 23.511C37.8103 23.511 37.527 23.392 37.289 23.154ZM49.162 34H47.428V32.793C46.68 33.6883 45.677 34.136 44.419 34.136C43.4783 34.136 42.6963 33.8697 42.073 33.337C41.461 32.8043 41.155 32.096 41.155 31.212C41.155 30.3167 41.4837 29.648 42.141 29.206C42.7983 28.764 43.688 28.543 44.81 28.543H47.275V28.203C47.275 27.0017 46.6063 26.401 45.269 26.401C44.4303 26.401 43.5577 26.707 42.651 27.319L41.801 26.129C42.9003 25.2563 44.147 24.82 45.541 24.82C46.6063 24.82 47.4733 25.092 48.142 25.636C48.822 26.1687 49.162 27.013 49.162 28.169V34ZM47.258 30.634V29.869H45.116C43.7447 29.869 43.059 30.2997 43.059 31.161C43.059 31.603 43.229 31.943 43.569 32.181C43.909 32.4077 44.3793 32.521 44.98 32.521C45.592 32.521 46.1247 32.351 46.578 32.011C47.0313 31.671 47.258 31.212 47.258 30.634ZM56.5555 26.741C55.6149 26.741 54.9065 27.047 54.4305 27.659C53.9545 28.271 53.7165 29.0927 53.7165 30.124V34H51.8125V24.956H53.7165V26.775C54.0225 26.2083 54.4362 25.7437 54.9575 25.381C55.4902 25.0183 56.0512 24.8313 56.6405 24.82L56.6575 26.741C56.6235 26.741 56.5895 26.741 56.5555 26.741ZM62.3264 30.311H60.4054V29.274C60.4054 28.8207 60.4564 28.4863 60.5584 28.271C60.6717 28.0443 60.9097 27.7497 61.2724 27.387L62.5134 26.146C62.774 25.8627 62.9044 25.5113 62.9044 25.092C62.9044 24.6727 62.7684 24.327 62.4964 24.055C62.2244 23.7717 61.873 23.63 61.4424 23.63C61.0117 23.63 60.649 23.766 60.3544 24.038C60.071 24.2987 59.9067 24.65 59.8614 25.092H57.8044C57.9177 24.0833 58.3087 23.2957 58.9774 22.729C59.6574 22.151 60.5017 21.862 61.5104 21.862C62.519 21.862 63.3407 22.1397 63.9754 22.695C64.61 23.239 64.9274 24.004 64.9274 24.99C64.9274 25.67 64.7404 26.2367 64.3664 26.69C64.151 26.962 63.9867 27.1547 63.8734 27.268C63.76 27.3813 63.607 27.5287 63.4144 27.71C63.233 27.88 63.0744 28.033 62.9384 28.169C62.8137 28.2937 62.7117 28.4013 62.6324 28.492C62.4284 28.7413 62.3264 29.0927 62.3264 29.546V30.311ZM61.3914 34.085C61.04 34.085 60.734 33.966 60.4734 33.728C60.2127 33.4787 60.0824 33.184 60.0824 32.844C60.0824 32.4927 60.207 32.1923 60.4564 31.943C60.717 31.6937 61.023 31.569 61.3744 31.569C61.737 31.569 62.0487 31.6937 62.3094 31.943C62.57 32.181 62.7004 32.4757 62.7004 32.827C62.7004 33.167 62.57 33.4617 62.3094 33.711C62.06 33.9603 61.754 34.085 61.3914 34.085Z" fill="black"/>
</svg>
