<svg width="139" height="38" viewBox="0 0 139 38" fill="none" xmlns="http://www.w3.org/2000/svg">
<path d="M9.996 1.117V3.004H3.655V6.149H9.35V7.934H3.655V11.113H10.2V13H1.649V1.117H9.996ZM18.943 10.297C18.943 11.1583 18.6314 11.8497 18.008 12.371C17.3847 12.881 16.5857 13.136 15.611 13.136C14.9537 13.136 14.268 13.017 13.554 12.779C12.8514 12.541 12.228 12.2067 11.684 11.776L12.602 10.297C13.656 11.0903 14.676 11.487 15.662 11.487C16.0927 11.487 16.4327 11.3907 16.682 11.198C16.9314 10.994 17.056 10.739 17.056 10.433C17.056 9.97967 16.4554 9.57167 15.254 9.209C15.1634 9.175 15.0954 9.15233 15.05 9.141C13.1687 8.631 12.228 7.781 12.228 6.591C12.228 5.75233 12.551 5.08367 13.197 4.585C13.8544 4.075 14.7044 3.82 15.747 3.82C16.7897 3.82 17.7757 4.126 18.705 4.738L17.991 6.149C17.2544 5.66167 16.4554 5.418 15.594 5.418C15.1407 5.418 14.7724 5.503 14.489 5.673C14.2057 5.83167 14.064 6.07533 14.064 6.404C14.064 6.69867 14.2114 6.914 14.506 7.05C14.71 7.152 14.9934 7.24833 15.356 7.339C15.73 7.42967 16.0587 7.52033 16.342 7.611C16.6254 7.70167 16.8974 7.80367 17.158 7.917C17.43 8.03033 17.719 8.189 18.025 8.393C18.637 8.801 18.943 9.43567 18.943 10.297ZM25.1117 13.136C23.8537 13.136 22.7713 12.711 21.8647 11.861C20.958 10.9997 20.5047 9.87767 20.5047 8.495C20.5047 7.11233 20.975 5.99033 21.9157 5.129C22.8677 4.25633 24.0237 3.82 25.3837 3.82C26.7437 3.82 27.894 4.29033 28.8347 5.231L27.7127 6.608C26.9307 5.928 26.143 5.588 25.3497 5.588C24.5563 5.588 23.865 5.85433 23.2757 6.387C22.6977 6.90833 22.4087 7.58833 22.4087 8.427C22.4087 9.25433 22.6977 9.957 23.2757 10.535C23.8537 11.113 24.562 11.402 25.4007 11.402C26.2507 11.402 27.0497 11.0167 27.7977 10.246L28.9197 11.47C27.8203 12.5807 26.551 13.136 25.1117 13.136ZM32.82 10.62C33.364 11.164 34.0496 11.436 34.877 11.436C35.7043 11.436 36.3843 11.164 36.917 10.62C37.461 10.0647 37.733 9.35067 37.733 8.478C37.733 7.60533 37.461 6.897 36.917 6.353C36.3843 5.79767 35.7043 5.52 34.877 5.52C34.0496 5.52 33.364 5.79767 32.82 6.353C32.2873 6.897 32.021 7.60533 32.021 8.478C32.021 9.35067 32.2873 10.0647 32.82 10.62ZM38.277 11.793C37.3703 12.6883 36.237 13.136 34.877 13.136C33.517 13.136 32.3836 12.6883 31.477 11.793C30.5703 10.8863 30.117 9.78133 30.117 8.478C30.117 7.17467 30.5703 6.07533 31.477 5.18C32.3836 4.27333 33.517 3.82 34.877 3.82C36.237 3.82 37.3703 4.27333 38.277 5.18C39.1836 6.07533 39.637 7.17467 39.637 8.478C39.637 9.78133 39.1836 10.8863 38.277 11.793ZM50.1658 3.956V11.844C50.1658 13.442 49.7295 14.6377 48.8568 15.431C47.9955 16.2357 46.8848 16.638 45.5248 16.638C44.1648 16.638 42.9351 16.213 41.8358 15.363L42.7368 13.918C43.6208 14.5867 44.5105 14.921 45.4058 14.921C46.3125 14.921 47.0265 14.6887 47.5478 14.224C48.0805 13.7593 48.3468 13.017 48.3468 11.997V10.841C48.0635 11.3737 47.6555 11.7987 47.1228 12.116C46.6015 12.4333 46.0121 12.592 45.3548 12.592C44.1535 12.592 43.1675 12.1727 42.3968 11.334C41.6261 10.4953 41.2408 9.45267 41.2408 8.206C41.2408 6.95933 41.6261 5.91667 42.3968 5.078C43.1675 4.23933 44.1478 3.82 45.3378 3.82C46.5391 3.82 47.5138 4.313 48.2618 5.299V3.956H50.1658ZM43.1108 8.138C43.1108 8.87467 43.3375 9.515 43.7908 10.059C44.2555 10.5917 44.8731 10.858 45.6438 10.858C46.4258 10.858 47.0548 10.5973 47.5308 10.076C48.0181 9.55467 48.2618 8.90867 48.2618 8.138C48.2618 7.356 48.0181 6.69867 47.5308 6.166C47.0435 5.622 46.4145 5.35 45.6438 5.35C44.8731 5.35 44.2555 5.62767 43.7908 6.183C43.3375 6.73833 43.1108 7.39 43.1108 8.138ZM61.3399 9.311H54.2509C54.2962 9.96833 54.5965 10.501 55.1519 10.909C55.7072 11.3057 56.3419 11.504 57.0559 11.504C58.1892 11.504 59.0505 11.147 59.6399 10.433L60.7279 11.623C59.7532 12.6317 58.4839 13.136 56.9199 13.136C55.6505 13.136 54.5682 12.7167 53.6729 11.878C52.7889 11.028 52.3469 9.89467 52.3469 8.478C52.3469 7.05 52.8002 5.91667 53.7069 5.078C54.6135 4.23933 55.6789 3.82 56.9029 3.82C58.1382 3.82 59.1865 4.194 60.0479 4.942C60.9092 5.67867 61.3399 6.69867 61.3399 8.002V9.311ZM54.2509 7.815H59.4359C59.4359 7.05567 59.1979 6.472 58.7219 6.064C58.2459 5.656 57.6565 5.452 56.9539 5.452C56.2625 5.452 55.6392 5.66733 55.0839 6.098C54.5285 6.51733 54.2509 7.08967 54.2509 7.815ZM70.0027 13H68.0987V0.385999H70.0027V13ZM80.0907 13H78.3567V11.793C77.6087 12.6883 76.6057 13.136 75.3477 13.136C74.4071 13.136 73.6251 12.8697 73.0017 12.337C72.3897 11.8043 72.0837 11.096 72.0837 10.212C72.0837 9.31667 72.4124 8.648 73.0697 8.206C73.7271 7.764 74.6167 7.543 75.7387 7.543H78.2037V7.203C78.2037 6.00167 77.5351 5.401 76.1977 5.401C75.3591 5.401 74.4864 5.707 73.5797 6.319L72.7297 5.129C73.8291 4.25633 75.0757 3.82 76.4697 3.82C77.5351 3.82 78.4021 4.092 79.0707 4.636C79.7507 5.16867 80.0907 6.013 80.0907 7.169V13ZM78.1867 9.634V8.869H76.0447C74.6734 8.869 73.9877 9.29967 73.9877 10.161C73.9877 10.603 74.1577 10.943 74.4977 11.181C74.8377 11.4077 75.3081 11.521 75.9087 11.521C76.5207 11.521 77.0534 11.351 77.5067 11.011C77.9601 10.671 78.1867 10.212 78.1867 9.634ZM93.1013 11.181C93.7926 11.181 94.3876 11.0677 94.8863 10.841C95.385 10.603 95.9063 10.229 96.4503 9.719L97.7423 11.045C96.4843 12.439 94.9543 13.136 93.1523 13.136C91.3616 13.136 89.8713 12.558 88.6813 11.402C87.5026 10.246 86.9133 8.784 86.9133 7.016C86.9133 5.248 87.514 3.77467 88.7153 2.596C89.928 1.41733 91.4523 0.828 93.2883 0.828C95.1356 0.828 96.677 1.508 97.9123 2.868L96.6373 4.262C96.0706 3.718 95.5323 3.33833 95.0223 3.123C94.5236 2.90767 93.9343 2.8 93.2543 2.8C92.053 2.8 91.0443 3.191 90.2283 3.973C89.4123 4.74367 89.0043 5.73533 89.0043 6.948C89.0043 8.14933 89.4066 9.158 90.2113 9.974C91.0273 10.7787 91.9906 11.181 93.1013 11.181ZM104.667 5.741C103.726 5.741 103.018 6.047 102.542 6.659C102.066 7.271 101.828 8.09267 101.828 9.124V13H99.9239V3.956H101.828V5.775C102.134 5.20833 102.548 4.74367 103.069 4.381C103.602 4.01833 104.163 3.83133 104.752 3.82L104.769 5.741C104.735 5.741 104.701 5.741 104.667 5.741ZM108.585 13H106.681V3.956H108.585V13ZM106.8 2.154C106.562 1.916 106.443 1.63267 106.443 1.304C106.443 0.975333 106.562 0.692 106.8 0.453999C107.038 0.215999 107.321 0.0969989 107.65 0.0969989C107.978 0.0969989 108.262 0.215999 108.5 0.453999C108.738 0.692 108.857 0.975333 108.857 1.304C108.857 1.63267 108.738 1.916 108.5 2.154C108.262 2.392 107.978 2.511 107.65 2.511C107.321 2.511 107.038 2.392 106.8 2.154ZM116.191 3.82C117.403 3.82 118.44 4.23933 119.302 5.078C120.163 5.91667 120.594 7.033 120.594 8.427C120.594 9.821 120.163 10.9543 119.302 11.827C118.452 12.6997 117.454 13.136 116.31 13.136C115.176 13.136 114.156 12.6373 113.25 11.64V16.298H111.346V3.956H113.25V5.537C113.998 4.39233 114.978 3.82 116.191 3.82ZM113.216 8.495C113.216 9.35633 113.476 10.0647 113.998 10.62C114.519 11.164 115.154 11.436 115.902 11.436C116.65 11.436 117.301 11.164 117.857 10.62C118.412 10.076 118.69 9.37333 118.69 8.512C118.69 7.63933 118.418 6.91967 117.874 6.353C117.33 5.775 116.678 5.486 115.919 5.486C115.159 5.486 114.519 5.775 113.998 6.353C113.476 6.91967 113.216 7.63367 113.216 8.495ZM125.114 5.486V10.076C125.114 10.5067 125.227 10.8523 125.454 11.113C125.68 11.3623 125.998 11.487 126.406 11.487C126.814 11.487 127.205 11.2887 127.579 10.892L128.361 12.235C127.692 12.8357 126.95 13.136 126.134 13.136C125.329 13.136 124.638 12.8583 124.06 12.303C123.493 11.7363 123.21 10.977 123.21 10.025V5.486H122.071V3.956H123.21V1.117H125.114V3.956H127.494V5.486H125.114ZM131.915 10.62C132.459 11.164 133.144 11.436 133.972 11.436C134.799 11.436 135.479 11.164 136.012 10.62C136.556 10.0647 136.828 9.35067 136.828 8.478C136.828 7.60533 136.556 6.897 136.012 6.353C135.479 5.79767 134.799 5.52 133.972 5.52C133.144 5.52 132.459 5.79767 131.915 6.353C131.382 6.897 131.116 7.60533 131.116 8.478C131.116 9.35067 131.382 10.0647 131.915 10.62ZM137.372 11.793C136.465 12.6883 135.332 13.136 133.972 13.136C132.612 13.136 131.478 12.6883 130.572 11.793C129.665 10.8863 129.212 9.78133 129.212 8.478C129.212 7.17467 129.665 6.07533 130.572 5.18C131.478 4.27333 132.612 3.82 133.972 3.82C135.332 3.82 136.465 4.27333 137.372 5.18C138.278 6.07533 138.732 7.17467 138.732 8.478C138.732 9.78133 138.278 10.8863 137.372 11.793ZM8.704 34H6.97V32.793C6.222 33.6883 5.219 34.136 3.961 34.136C3.02033 34.136 2.23833 33.8697 1.615 33.337C1.003 32.8043 0.697 32.096 0.697 31.212C0.697 30.3167 1.02567 29.648 1.683 29.206C2.34033 28.764 3.23 28.543 4.352 28.543H6.817V28.203C6.817 27.0017 6.14833 26.401 4.811 26.401C3.97233 26.401 3.09967 26.707 2.193 27.319L1.343 26.129C2.44233 25.2563 3.689 24.82 5.083 24.82C6.14833 24.82 7.01533 25.092 7.684 25.636C8.364 26.1687 8.704 27.013 8.704 28.169V34ZM6.8 30.634V29.869H4.658C3.28667 29.869 2.601 30.2997 2.601 31.161C2.601 31.603 2.771 31.943 3.111 32.181C3.451 32.4077 3.92133 32.521 4.522 32.521C5.134 32.521 5.66667 32.351 6.12 32.011C6.57333 31.671 6.8 31.212 6.8 30.634ZM20.0316 34.136C18.7736 34.136 17.6912 33.711 16.7846 32.861C15.8779 31.9997 15.4246 30.8777 15.4246 29.495C15.4246 28.1123 15.8949 26.9903 16.8356 26.129C17.7876 25.2563 18.9436 24.82 20.3036 24.82C21.6636 24.82 22.8139 25.2903 23.7546 26.231L22.6326 27.608C21.8506 26.928 21.0629 26.588 20.2696 26.588C19.4762 26.588 18.7849 26.8543 18.1956 27.387C17.6176 27.9083 17.3286 28.5883 17.3286 29.427C17.3286 30.2543 17.6176 30.957 18.1956 31.535C18.7736 32.113 19.4819 32.402 20.3206 32.402C21.1706 32.402 21.9696 32.0167 22.7176 31.246L23.8396 32.47C22.7402 33.5807 21.4709 34.136 20.0316 34.136ZM27.7399 31.62C28.2839 32.164 28.9695 32.436 29.7969 32.436C30.6242 32.436 31.3042 32.164 31.8369 31.62C32.3809 31.0647 32.6529 30.3507 32.6529 29.478C32.6529 28.6053 32.3809 27.897 31.8369 27.353C31.3042 26.7977 30.6242 26.52 29.7969 26.52C28.9695 26.52 28.2839 26.7977 27.7399 27.353C27.2072 27.897 26.9409 28.6053 26.9409 29.478C26.9409 30.3507 27.2072 31.0647 27.7399 31.62ZM33.1969 32.793C32.2902 33.6883 31.1569 34.136 29.7969 34.136C28.4369 34.136 27.3035 33.6883 26.3969 32.793C25.4902 31.8863 25.0369 30.7813 25.0369 29.478C25.0369 28.1747 25.4902 27.0753 26.3969 26.18C27.3035 25.2733 28.4369 24.82 29.7969 24.82C31.1569 24.82 32.2902 25.2733 33.1969 26.18C34.1035 27.0753 34.5569 28.1747 34.5569 29.478C34.5569 30.7813 34.1035 31.8863 33.1969 32.793ZM38.6257 29.104V34H36.7217V24.956H38.6257V26.605C38.8977 26.0497 39.3057 25.6133 39.8497 25.296C40.4051 24.9787 41.0001 24.82 41.6347 24.82C43.0627 24.82 44.0317 25.4093 44.5417 26.588C45.4371 25.4093 46.5534 24.82 47.8907 24.82C48.9107 24.82 49.7324 25.1317 50.3557 25.755C50.9904 26.3783 51.3077 27.2793 51.3077 28.458V34H49.4037V29.036C49.4037 27.37 48.7124 26.537 47.3297 26.537C46.6837 26.537 46.1171 26.7467 45.6297 27.166C45.1537 27.574 44.9044 28.1747 44.8817 28.968V34H42.9777V29.036C42.9777 28.1747 42.8247 27.5457 42.5187 27.149C42.2127 26.741 41.7311 26.537 41.0737 26.537C40.4164 26.537 39.8441 26.758 39.3567 27.2C38.8694 27.6307 38.6257 28.2653 38.6257 29.104ZM58.7991 24.82C60.0118 24.82 61.0488 25.2393 61.9101 26.078C62.7715 26.9167 63.2021 28.033 63.2021 29.427C63.2021 30.821 62.7715 31.9543 61.9101 32.827C61.0601 33.6997 60.0628 34.136 58.9181 34.136C57.7848 34.136 56.7648 33.6373 55.8581 32.64V37.298H53.9541V24.956H55.8581V26.537C56.6061 25.3923 57.5865 24.82 58.7991 24.82ZM55.8241 29.495C55.8241 30.3563 56.0848 31.0647 56.6061 31.62C57.1275 32.164 57.7621 32.436 58.5101 32.436C59.2581 32.436 59.9098 32.164 60.4651 31.62C61.0205 31.076 61.2981 30.3733 61.2981 29.512C61.2981 28.6393 61.0261 27.9197 60.4821 27.353C59.9381 26.775 59.2865 26.486 58.5271 26.486C57.7678 26.486 57.1275 26.775 56.6061 27.353C56.0848 27.9197 55.8241 28.6337 55.8241 29.495ZM70.119 26.741C69.1784 26.741 68.47 27.047 67.994 27.659C67.518 28.271 67.28 29.0927 67.28 30.124V34H65.376V24.956H67.28V26.775C67.586 26.2083 67.9997 25.7437 68.521 25.381C69.0537 25.0183 69.6147 24.8313 70.204 24.82L70.221 26.741C70.187 26.741 70.153 26.741 70.119 26.741ZM79.3769 34H77.6429V32.793C76.8949 33.6883 75.8919 34.136 74.6339 34.136C73.6932 34.136 72.9112 33.8697 72.2879 33.337C71.6759 32.8043 71.3699 32.096 71.3699 31.212C71.3699 30.3167 71.6985 29.648 72.3559 29.206C73.0132 28.764 73.9029 28.543 75.0249 28.543H77.4899V28.203C77.4899 27.0017 76.8212 26.401 75.4839 26.401C74.6452 26.401 73.7725 26.707 72.8659 27.319L72.0159 26.129C73.1152 25.2563 74.3619 24.82 75.7559 24.82C76.8212 24.82 77.6882 25.092 78.3569 25.636C79.0369 26.1687 79.3769 27.013 79.3769 28.169V34ZM77.4729 30.634V29.869H75.3309C73.9595 29.869 73.2739 30.2997 73.2739 31.161C73.2739 31.603 73.4439 31.943 73.7839 32.181C74.1239 32.4077 74.5942 32.521 75.1949 32.521C75.8069 32.521 76.3395 32.351 76.7929 32.011C77.2462 31.671 77.4729 31.212 77.4729 30.634ZM86.7704 26.741C85.8297 26.741 85.1214 27.047 84.6454 27.659C84.1694 28.271 83.9314 29.0927 83.9314 30.124V34H82.0274V24.956H83.9314V26.775C84.2374 26.2083 84.6511 25.7437 85.1724 25.381C85.7051 25.0183 86.2661 24.8313 86.8554 24.82L86.8724 26.741C86.8384 26.741 86.8044 26.741 86.7704 26.741Z" fill="black"/>
</svg>
