<svg id="Layer_1" data-name="Layer 1" xmlns="http://www.w3.org/2000/svg" viewBox="0 0 792.01 32.67"><defs><style>.cls-1{fill:#c02938;}.cls-2{font-size:21px;fill:#fff;font-family:CircularStd-Medium, Circular Std;font-weight:500;}.cls-3{letter-spacing:-0.01em;}.cls-4{letter-spacing:0em;}.cls-5{letter-spacing:0em;}.cls-6{letter-spacing:0em;}.cls-7{letter-spacing:-0.09em;}.cls-8{letter-spacing:0em;}.cls-9{letter-spacing:-0.01em;}.cls-10{letter-spacing:0em;}.cls-11{letter-spacing:0em;}.cls-12{letter-spacing:0em;}.cls-13{letter-spacing:0em;}.cls-14{letter-spacing:-0.05em;}.cls-15{letter-spacing:0em;}.cls-16{letter-spacing:0em;}</style></defs><rect class="cls-1" width="792.01" height="32.67"/><text class="cls-2" transform="translate(22.33 23.67)"><tspan class="cls-3">S</tspan><tspan class="cls-4" x="12.43" y="0">olici</tspan><tspan class="cls-5" x="52.67" y="0">t</tspan><tspan class="cls-6" x="60.4" y="0">u</tspan><tspan class="cls-4" x="72.45" y="0">d </tspan><tspan class="cls-7" x="90.3" y="0">T</tspan><tspan x="101.26" y="0">a</tspan><tspan class="cls-8" x="112.43" y="0">r</tspan><tspan x="120.45" y="0">je</tspan><tspan class="cls-5" x="137.55" y="0">t</tspan><tspan x="145.28" y="0">a de </tspan><tspan class="cls-9" x="191.01" y="0">C</tspan><tspan class="cls-10" x="206.68" y="0">r</tspan><tspan x="214.6" y="0">édi</tspan><tspan class="cls-10" x="244.31" y="0">t</tspan><tspan class="cls-4" x="251.91" y="0">o </tspan><tspan class="cls-10" x="269.28" y="0">G</tspan><tspan class="cls-11" x="285.47" y="0">u</tspan><tspan class="cls-12" x="297.59" y="0">r</tspan><tspan x="305.63" y="0">u</tspan><tspan class="cls-13" x="317.75" y="0">x</tspan><tspan x="328.58" y="0">y</tspan><tspan class="cls-14" x="339.98" y="0" xml:space="preserve"> –</tspan><tspan x="356.55" y="0"> </tspan><tspan class="cls-15" x="361.76" y="0">B</tspan><tspan x="374.4" y="0">an</tspan><tspan class="cls-15" x="397.63" y="0">c</tspan><tspan x="408.89" y="0">o </tspan><tspan class="cls-6" x="426.25" y="0">F</tspan><tspan class="cls-16" x="437.89" y="0">inandina.</tspan></text></svg>