<svg width="141" height="42" viewBox="0 0 141 42" fill="none" xmlns="http://www.w3.org/2000/svg">
<path fill-rule="evenodd" clip-rule="evenodd" d="M22.3906 0C7.45154 0 0 8.86149 0 19.7926C0 27.9739 4.174 34.9954 12.5371 38.0101C12.2824 38.3283 12.0082 38.637 11.71 38.9338C11.4131 39.2294 11.1086 39.5043 10.7959 39.7547C10.0463 40.3634 9.24949 40.8466 8.40789 41.2068C9.63216 41.7346 11.0752 42 12.7382 42C12.916 42 13.0925 41.9956 13.2665 41.9887C14.5494 41.9278 15.7523 41.6473 16.8712 41.1491L16.8725 41.1472C17.7961 40.7355 18.6591 40.1739 19.4692 39.4654C20.4092 39.5438 21.3825 39.5852 22.3906 39.5852C37.4859 39.5852 44.7811 30.7237 44.7811 19.7926C44.7811 8.86149 37.8144 0 22.3906 0Z" fill="#1CCE28"/>
<path fill-rule="evenodd" clip-rule="evenodd" d="M32.231 21.8852C31.4884 19.9131 29.1932 16.5693 22.2236 17.4624C21.3636 17.6133 20.5662 17.4755 19.8261 17.0503C19.0873 16.6257 18.6476 16.0144 18.5056 15.2178C18.3643 14.4224 18.5618 13.7003 19.0993 13.0508C19.635 12.402 20.3441 12.0005 21.2255 11.8465C22.1062 11.6924 22.9106 11.8289 23.6387 12.2561C23.8854 12.4014 24.098 12.5692 24.2772 12.7571C24.2892 12.7665 24.2999 12.7759 24.3081 12.7859C24.6248 13.1354 25.0942 13.2243 25.4014 13.1874L28.4266 12.6581C28.8058 12.5586 29.5131 12.1484 29.3635 11.2578C28.8342 10.163 27.944 9.27745 26.6929 8.60106C25.5838 8.00171 24.3636 7.66978 23.0337 7.60464L22.7636 6.08715C22.6488 5.4402 22.0211 5.00367 21.3687 5.11828L18.7801 5.57109C18.1277 5.68507 17.6874 6.30823 17.8028 6.95581L18.0722 8.47017C16.8369 8.98435 15.7972 9.71272 14.9524 10.6553C13.6073 12.1571 13.0906 13.8005 13.4004 15.5848L13.4136 15.5829C13.5612 16.7109 14.206 18.021 15.3877 19.1596C15.6836 19.4258 16.1688 19.8379 16.336 19.9475C16.7631 20.255 17.2382 20.54 17.7631 20.793C20.1428 21.9397 22.3163 21.6216 22.8273 21.5226C22.8646 21.5157 22.9012 21.5063 22.9396 21.4988C23.9106 21.3291 24.8286 21.4462 25.6923 21.8495C26.5554 22.2535 27.0771 22.9599 27.2563 23.9689C27.4349 24.9772 27.1762 25.8152 26.4797 26.4803C25.7825 27.1454 24.9712 27.5594 24.045 27.721C23.1188 27.8832 22.2135 27.7698 21.3302 27.3815C20.751 27.1279 20.3239 26.7402 20.0469 26.2198C19.7447 25.6768 19.1706 25.5622 18.77 25.6311L15.823 26.1471C15.324 26.236 14.6691 26.6845 14.8344 27.6458C15.3883 29.0888 16.4104 30.2474 17.9057 31.1192C19.199 31.872 20.6652 32.2641 22.3043 32.2985L22.5731 33.8129C22.6879 34.4598 23.3157 34.8963 23.968 34.7817L26.5579 34.3289C27.2096 34.2149 27.6494 33.5912 27.5345 32.9442L27.2651 31.4286C28.79 30.8399 30.0304 29.975 30.9837 28.8301C32.4045 27.1247 32.9319 25.2415 32.5654 23.1779C32.4846 22.7251 32.3736 22.2936 32.231 21.8852Z" fill="white"/>
<path fill-rule="evenodd" clip-rule="evenodd" d="M63.7493 27.7963C66.1569 27.7963 68.1249 26.8393 69.654 24.9261L72.7957 28.1745C70.3039 30.9917 67.3663 32.4 63.9841 32.4C60.6019 32.4 57.8163 31.3283 55.6279 29.1831C53.4388 27.0392 52.3455 24.3323 52.3455 21.0624C52.3455 17.7945 53.4608 15.0661 55.6907 12.8793C57.9218 10.6937 60.649 9.60001 63.8749 9.60001C67.4762 9.60001 70.4911 10.9768 72.9206 13.731L69.8744 17.2C68.324 15.266 66.398 14.2989 64.094 14.2989C62.2516 14.2989 60.6748 14.9035 59.3667 16.112C58.0574 17.321 57.4037 18.95 57.4037 21C57.4037 23.05 58.0204 24.6947 59.2562 25.9353C60.492 27.176 61.9891 27.7963 63.7493 27.7963Z" fill="#333646"/>
<path fill-rule="evenodd" clip-rule="evenodd" d="M79.9179 24.0148C79.9179 25.3467 80.2978 26.432 81.055 27.2687C81.8129 28.1061 82.7831 28.5251 83.9649 28.5251C85.1467 28.5251 86.1169 28.1061 86.8747 27.2687C87.632 26.432 88.0112 25.3467 88.0112 24.0148C88.0112 22.6829 87.632 21.5932 86.8747 20.7458C86.1169 19.8983 85.1467 19.4743 83.9649 19.4743C82.7831 19.4743 81.8129 19.8983 81.055 20.7458C80.2978 21.5932 79.9179 22.6829 79.9179 24.0148ZM92.588 24.0148C92.588 26.376 91.7696 28.3634 90.133 29.9778C88.4957 31.5928 86.4401 32.4 83.9649 32.4C81.4897 32.4 79.4335 31.5928 77.7968 29.9778C76.1602 28.3634 75.3412 26.376 75.3412 24.0148C75.3412 21.6536 76.1602 19.6611 77.7968 18.0367C79.4335 16.4129 81.4897 15.6 83.9649 15.6C86.4401 15.6 88.4957 16.4129 90.133 18.0367C91.7696 19.6611 92.588 21.6536 92.588 24.0148Z" fill="#333646"/>
<path fill-rule="evenodd" clip-rule="evenodd" d="M99.5355 23.8052C99.5355 25.1152 99.9074 26.1852 100.652 27.0151C101.396 27.8451 102.298 28.2603 103.359 28.2603C104.419 28.2603 105.347 27.8451 106.142 27.0151C106.937 26.1852 107.335 25.1202 107.335 23.8196C107.335 22.5201 106.947 21.4302 106.172 20.5498C105.397 19.67 104.47 19.2304 103.389 19.2304C102.308 19.2304 101.396 19.665 100.652 20.5348C99.9074 21.4046 99.5355 22.4952 99.5355 23.8052ZM104.491 15.4499C106.488 15.4499 108.232 16.215 109.72 17.7451C111.208 19.2747 111.953 21.2406 111.953 23.64C111.953 26.0399 111.188 28.0502 109.659 29.6701C108.13 31.29 106.391 32.1 104.444 32.1C102.497 32.1 100.881 31.31 99.5965 29.73V31.8599H95.0086V9.60001H99.5965V17.5201C100.86 16.1402 102.492 15.4499 104.491 15.4499Z" fill="#333646"/>
<path fill-rule="evenodd" clip-rule="evenodd" d="M122.881 19.8532C121.538 19.8532 120.536 20.331 119.875 21.2858C119.214 22.2413 118.883 23.5033 118.883 25.0713V32.1H114.373V15.8715H118.883V18.0131C119.464 17.3492 120.19 16.7868 121.063 16.3241C121.934 15.8614 122.821 15.6207 123.723 15.6L123.753 19.8532H122.881Z" fill="#333646"/>
<path fill-rule="evenodd" clip-rule="evenodd" d="M136.374 15.9V25.2134C136.374 27.7119 135.445 28.9606 133.587 28.9606C131.728 28.9606 130.799 27.7119 130.799 25.2134V15.9H126.174V25.7523C126.174 27.9474 126.786 29.6044 128.011 30.723C129.237 31.8404 130.753 32.4 132.56 32.4H134.613C136.42 32.4 137.936 31.8404 139.162 30.723C140.387 29.6044 141 27.9474 141 25.7523V15.9H136.374Z" fill="#333646"/>
</svg>
