<svg id="Capa_1" data-name="Capa 1" xmlns="http://www.w3.org/2000/svg" viewBox="0 0 274.31 282.2"><defs><style>.cls-1{fill:#e4151c;}.cls-2{fill:#6b1409;}.cls-3{fill:#6a170e;}.cls-4{fill:#0b3a59;}</style></defs><path class="cls-1" d="M113,64.35c29.88-8,30-40.6,85.89-33.53A84.09,84.09,0,0,0,58.75,46.18C65.63,53.72,87.86,71.12,113,64.35Z"/><path class="cls-1" d="M64.93,132.28a84.1,84.1,0,0,0,139.94-3.21C149.72,110.75,146.81,169.71,64.93,132.28Z"/><path class="cls-1" d="M155,110.93c19.64-4.23,39.05-2.72,57.73,2.4a84.38,84.38,0,0,0,0-58.38c-7.3,42.19-96.12,53.66-160.16,7.49a84.58,84.58,0,0,0,2.23,50.38C55.83,113.3,77.86,127.53,155,110.93Z"/><path class="cls-2" d="M198.88,30.82c-43.27-5.47-53.12,12.78-69.2,25C210.05,62.07,198.88,30.82,198.88,30.82Z"/><path class="cls-2" d="M212.71,55v-.06c-.28-6.34-13.56-12.75-55.7,24.13-9.93,8.68-21.62,11.82-33.52,11.7C168.26,97,207.9,82.57,212.71,55Z"/><polygon class="cls-3" points="52.56 62.46 52.55 62.45 52.56 62.46 52.56 62.46"/><path class="cls-2" d="M156.87,132.39c-12-4-23.35-9.67-43.4-9.67-27.1,0-48.5,4-48.53,9.57C115.25,155.29,135.75,141.88,156.87,132.39Z"/><path class="cls-3" d="M64.94,132.29h0l0,0Z"/><path class="cls-4" d="M80.7,216A8.75,8.75,0,0,1,78,219.68,13.45,13.45,0,0,1,73.12,222a26.87,26.87,0,0,1-7.21.83H51v-43H65.54a27.26,27.26,0,0,1,7,.77,12.09,12.09,0,0,1,4.54,2.18,8,8,0,0,1,2.46,3.35,11.91,11.91,0,0,1,.73,4.26,12.38,12.38,0,0,1-.58,4,8.28,8.28,0,0,1-1.63,2.85,8.62,8.62,0,0,1-2.48,1.9,18.22,18.22,0,0,1-3.16,1.23v.37a19.14,19.14,0,0,1,3.43,1,9.36,9.36,0,0,1,2.92,1.87,8.85,8.85,0,0,1,2,3,11.83,11.83,0,0,1,.76,4.47A12.81,12.81,0,0,1,80.7,216Zm-8-28.66a6.13,6.13,0,0,0-2.64-1.79,12,12,0,0,0-3.31-.64c-1.17-.06-2.19-.09-3-.09H57.31v13.5h6.26a22,22,0,0,0,3.6-.3,10.76,10.76,0,0,0,3.28-1.11,6.42,6.42,0,0,0,2.39-2.24,6.86,6.86,0,0,0,.92-3.77A5.21,5.21,0,0,0,72.69,187.36ZM74,207.06a6.38,6.38,0,0,0-2.42-2.24,11.63,11.63,0,0,0-3.5-1.17,24.83,24.83,0,0,0-4.12-.33H57.31v14.55h7.06a30.09,30.09,0,0,0,4.15-.28,10.1,10.1,0,0,0,3.37-1,5.53,5.53,0,0,0,2.24-2.18,7.39,7.39,0,0,0,.8-3.69A6.72,6.72,0,0,0,74,207.06Z"/><path class="cls-4" d="M107.93,223.39q-3.34.13-6.66.13a36.16,36.16,0,0,1-5.74-.43,12.14,12.14,0,0,1-4.48-1.6,8,8,0,0,1-2.92-3.22,11.72,11.72,0,0,1-1-5.32,8.86,8.86,0,0,1,1.69-5.79,9.88,9.88,0,0,1,4.25-3,18.55,18.55,0,0,1,5.54-1.1c2-.1,3.83-.15,5.51-.15q1,0,2.34.09c.86.06,1.83.09,2.89.09a39.85,39.85,0,0,0-.18-4.21,4.42,4.42,0,0,0-1.08-2.57,4.9,4.9,0,0,0-2.76-1.32,28.38,28.38,0,0,0-5.25-.37,36.76,36.76,0,0,0-5.34.4q-2.76.39-5.34.89V191.1a57,57,0,0,1,11.36-1.17,50.22,50.22,0,0,1,6.07.34,12.43,12.43,0,0,1,4.62,1.44,7.28,7.28,0,0,1,2.94,3.23,12.89,12.89,0,0,1,1,5.68v22.16Q111.28,223.28,107.93,223.39Zm1.44-15.78-3.39-.12c-.94,0-1.64-.06-2.09-.06a40.76,40.76,0,0,0-4.35.21,10.45,10.45,0,0,0-3.29.86,4.86,4.86,0,0,0-2.07,1.75,5.31,5.31,0,0,0-.71,2.89,5.59,5.59,0,0,0,.83,3.22,5,5,0,0,0,2.22,1.78,11.07,11.07,0,0,0,3.18.77,36.16,36.16,0,0,0,3.63.18c.83,0,1.65,0,2.47-.09s2-.13,3.57-.21Z"/><path class="cls-4" d="M146.94,222.84V202.23c0-.86,0-1.72-.09-2.59a5.79,5.79,0,0,0-.61-2.3,4,4,0,0,0-1.66-1.67,6.58,6.58,0,0,0-3.22-.64,11.89,11.89,0,0,0-2.58.31c-.94.2-1.88.45-2.82.73s-1.86.61-2.73,1l-2.37.95v24.86h-6.08V190.5h5.65v2.95c1.6-.69,3-1.26,4.12-1.73a28.91,28.91,0,0,1,3.13-1.09,17.73,17.73,0,0,1,2.76-.55,27.39,27.39,0,0,1,3-.15,12.09,12.09,0,0,1,3.47.53,8.41,8.41,0,0,1,3.13,1.71,9.11,9.11,0,0,1,2.24,3.07,10.8,10.8,0,0,1,.86,4.51v23.09Z"/><path class="cls-4" d="M182.43,223.36c-1.35.1-2.68.16-4,.16a22.68,22.68,0,0,1-7.18-1.08,15,15,0,0,1-5.59-3.25,14.71,14.71,0,0,1-3.62-5.47,20.8,20.8,0,0,1-1.29-7.64,16.66,16.66,0,0,1,1.35-6.88,14.72,14.72,0,0,1,3.68-5.06,15.94,15.94,0,0,1,5.5-3.13,20.86,20.86,0,0,1,6.78-1.08q1.29,0,2.34,0c.69,0,1.35.06,2,.12s1.28.15,1.93.25l2.15.34v4.79c-1.31-.21-2.43-.37-3.37-.49a21.62,21.62,0,0,0-3-.19,20,20,0,0,0-5.1.62,11.37,11.37,0,0,0-4.08,2,9,9,0,0,0-2.73,3.53,12.81,12.81,0,0,0-1,5.31q0,6.33,3.47,9.43c2.3,2.06,5.47,3.08,9.48,3,.9,0,1.86-.1,2.89-.19s2.25-.25,3.68-.49v4.73A32.83,32.83,0,0,1,182.43,223.36Z"/><path class="cls-4" d="M222.12,213.41a15.87,15.87,0,0,1-3.37,5.44,15.4,15.4,0,0,1-5.16,3.53,16.65,16.65,0,0,1-6.54,1.26,17.92,17.92,0,0,1-6.91-1.26,14.22,14.22,0,0,1-5.12-3.53,14.93,14.93,0,0,1-3.16-5.4,21.18,21.18,0,0,1-1.08-6.94,20.59,20.59,0,0,1,1.11-7,14.4,14.4,0,0,1,3.16-5.25,13.7,13.7,0,0,1,5.09-3.31,19.14,19.14,0,0,1,6.91-1.17,18.9,18.9,0,0,1,6.88,1.17,14,14,0,0,1,5.09,3.31,14.19,14.19,0,0,1,3.19,5.25,20.59,20.59,0,0,1,1.11,7A19.23,19.23,0,0,1,222.12,213.41Zm-7.78-15.85q-2.47-3.21-7.29-3.21t-7.29,3.21q-2.47,3.21-2.47,8.95c0,3.86.82,6.93,2.47,9.19a9.53,9.53,0,0,0,14.58,0c1.65-2.26,2.47-5.33,2.47-9.19S216,199.7,214.34,197.56Z"/><path class="cls-4" d="M6.51,243.76V258H22.72v5.22H6.51v18.29H0v-43H27.32v5.21Z"/><path class="cls-4" d="M31.56,241.43v-6H37.7v6Zm0,40.09V249.29H37.7v32.23Z"/><path class="cls-4" d="M69.44,281.52V260.91q0-1.29-.09-2.58a6,6,0,0,0-.61-2.31,4.08,4.08,0,0,0-1.66-1.66,6.64,6.64,0,0,0-3.23-.65,11.87,11.87,0,0,0-2.57.31c-1,.21-1.89.45-2.83.74s-1.85.6-2.73,1l-2.36,1v24.86H47.27V249.19h5.65v2.94c1.6-.68,3-1.26,4.12-1.72a30.73,30.73,0,0,1,3.13-1.1,17.68,17.68,0,0,1,2.76-.54,27.37,27.37,0,0,1,3-.16,12,12,0,0,1,3.47.53,8.43,8.43,0,0,1,3.13,1.72,8.88,8.88,0,0,1,2.24,3.07,10.8,10.8,0,0,1,.86,4.51v23.08Z"/><path class="cls-4" d="M103.23,282.07c-2.23.08-4.44.13-6.65.13a36.29,36.29,0,0,1-5.75-.43,12.2,12.2,0,0,1-4.48-1.6A7.83,7.83,0,0,1,83.44,277a11.67,11.67,0,0,1-1-5.31,8.87,8.87,0,0,1,1.7-5.8,9.77,9.77,0,0,1,4.24-3,18.94,18.94,0,0,1,5.55-1.11c2-.1,3.82-.15,5.5-.15q1.05,0,2.34.09c.87.06,1.83.09,2.9.09a36.66,36.66,0,0,0-.19-4.2,4.3,4.3,0,0,0-1.07-2.58,5,5,0,0,0-2.76-1.32,28.38,28.38,0,0,0-5.25-.37,36.76,36.76,0,0,0-5.34.4c-1.85.27-3.62.56-5.35.89v-4.79A57.14,57.14,0,0,1,96,248.61a50.4,50.4,0,0,1,6.08.34,12.32,12.32,0,0,1,4.61,1.44,7.35,7.35,0,0,1,3,3.23,13,13,0,0,1,1,5.68v22.16Q106.59,282,103.23,282.07Zm1.45-15.77c-1.31,0-2.45-.08-3.39-.13s-1.64-.06-2.09-.06a40.59,40.59,0,0,0-4.35.22,10.33,10.33,0,0,0-3.3.86,4.76,4.76,0,0,0-2.06,1.75,5.27,5.27,0,0,0-.71,2.88,5.49,5.49,0,0,0,.83,3.22,4.93,4.93,0,0,0,2.22,1.78,11,11,0,0,0,3.17.77,33.46,33.46,0,0,0,3.64.19c.82,0,1.64,0,2.47-.1s2-.13,3.57-.21Z"/><path class="cls-4" d="M142.25,281.52V260.91q0-1.29-.09-2.58a5.84,5.84,0,0,0-.61-2.31,4,4,0,0,0-1.66-1.66,6.61,6.61,0,0,0-3.23-.65,11.87,11.87,0,0,0-2.57.31c-1,.21-1.89.45-2.82.74s-1.86.6-2.74,1l-2.36,1v24.86h-6.08V249.19h5.64v2.94c1.61-.68,3-1.26,4.12-1.72a30.73,30.73,0,0,1,3.13-1.1,17.57,17.57,0,0,1,2.77-.54,27.23,27.23,0,0,1,3-.16,12,12,0,0,1,3.46.53,8.36,8.36,0,0,1,3.13,1.72,8.88,8.88,0,0,1,2.24,3.07,10.8,10.8,0,0,1,.86,4.51v23.08Z"/><path class="cls-4" d="M185.6,242.54v38.55l-2.71.4c-1,.14-2,.27-3,.37s-2.06.19-3.1.25-2,.09-2.92.09a22.28,22.28,0,0,1-7.06-1.08,16.18,16.18,0,0,1-5.65-3.16,14.35,14.35,0,0,1-3.74-5.18,17.66,17.66,0,0,1-1.35-7.16,21.93,21.93,0,0,1,1.07-7.06,14.76,14.76,0,0,1,3.16-5.43,14.36,14.36,0,0,1,5.13-3.5,18.26,18.26,0,0,1,7-1.26l2.67,0a38.87,38.87,0,0,1,4.33.4V235.48h6.14Zm-6.14,11.11c-1.32-.21-2.42-.35-3.3-.43s-1.67-.12-2.38-.12q-5.47,0-8.34,3t-2.87,9.32a14.94,14.94,0,0,0,.77,4.92,11.11,11.11,0,0,0,2.22,3.8,9.8,9.8,0,0,0,3.61,2.49,12.64,12.64,0,0,0,4.93.89c.57,0,1.28,0,2.12-.06s1.92-.12,3.24-.25Z"/><path class="cls-4" d="M195.17,241.43v-6h6.14v6Zm0,40.09V249.29h6.14v32.23Z"/><path class="cls-4" d="M233.05,281.52V260.91q0-1.29-.09-2.58a6,6,0,0,0-.61-2.31,4.08,4.08,0,0,0-1.66-1.66,6.61,6.61,0,0,0-3.23-.65,12,12,0,0,0-2.58.31c-.94.21-1.88.45-2.82.74s-1.85.6-2.73,1l-2.36,1v24.86h-6.08V249.19h5.65v2.94c1.6-.68,3-1.26,4.11-1.72a29.9,29.9,0,0,1,3.13-1.1,17.68,17.68,0,0,1,2.76-.54,27.37,27.37,0,0,1,3-.16,12,12,0,0,1,3.47.53,8.36,8.36,0,0,1,3.13,1.72,8.88,8.88,0,0,1,2.24,3.07,10.8,10.8,0,0,1,.87,4.51v23.08Z"/><path class="cls-4" d="M266.85,282.07c-2.23.08-4.45.13-6.66.13a36.16,36.16,0,0,1-5.74-.43,12.07,12.07,0,0,1-4.48-1.6,7.92,7.92,0,0,1-2.92-3.22,11.81,11.81,0,0,1-1-5.31,8.87,8.87,0,0,1,1.69-5.8,9.8,9.8,0,0,1,4.25-3,18.87,18.87,0,0,1,5.54-1.11c2-.1,3.82-.15,5.51-.15.7,0,1.47,0,2.34.09s1.82.09,2.89.09a36.66,36.66,0,0,0-.19-4.2A4.36,4.36,0,0,0,267,255a5,5,0,0,0-2.76-1.32,28.38,28.38,0,0,0-5.25-.37,36.76,36.76,0,0,0-5.34.4c-1.84.27-3.62.56-5.34.89v-4.79a57,57,0,0,1,11.36-1.17,50.34,50.34,0,0,1,6.07.34,12.43,12.43,0,0,1,4.62,1.44,7.33,7.33,0,0,1,2.94,3.23,13,13,0,0,1,1,5.68v22.16Q270.2,282,266.85,282.07Zm1.44-15.77c-1.32,0-2.44-.08-3.39-.13s-1.64-.06-2.09-.06a40.45,40.45,0,0,0-4.35.22,10.33,10.33,0,0,0-3.3.86,4.76,4.76,0,0,0-2.06,1.75,5.27,5.27,0,0,0-.71,2.88,5.56,5.56,0,0,0,.83,3.22,5,5,0,0,0,2.22,1.78,10.92,10.92,0,0,0,3.17.77,33.73,33.73,0,0,0,3.64.19c.82,0,1.64,0,2.46-.1s2-.13,3.58-.21Z"/></svg>