<?xml version="1.0" encoding="utf-8"?>
<!-- Generator: Adobe Illustrator 25.4.1, SVG Export Plug-In . SVG Version: 6.00 Build 0)  -->
<svg version="1.1" id="Capa_1" xmlns="http://www.w3.org/2000/svg" xmlns:xlink="http://www.w3.org/1999/xlink" x="0px" y="0px"
	 viewBox="0 0 140 35" style="enable-background:new 0 0 140 35;" xml:space="preserve">
<style type="text/css">
	.st0{clip-path:url(#SVGID_00000092429889478953526830000011454314747941792169_);}
	.st1{fill:#E64011;}
	.st2{fill:#0E5418;}
	.st3{fill:#FFFFFF;}
</style>
<g id="g10" transform="matrix(1.3333333,0,0,-1.3333333,0,218.66667)">
	<g id="g12">
		<g>
			<defs>
				<rect id="SVGID_1_" x="-4.98" y="129.94" width="114.96" height="44.47"/>
			</defs>
			<clipPath id="SVGID_00000073679985073089191390000009226350253227206026_">
				<use xlink:href="#SVGID_1_"  style="overflow:visible;"/>
			</clipPath>
			<g id="g14" style="clip-path:url(#SVGID_00000073679985073089191390000009226350253227206026_);">
				<g id="g20" transform="translate(327.4951,32.3773)">
					<path id="path22" class="st1" d="M-251.51,109.71c0.01,0.05,0.03,0.1,0.05,0.14c0.03,0.05,0.06,0.08,0.1,0.12
						c0.04,0.03,0.08,0.06,0.13,0.08c0.05,0.02,0.1,0.03,0.15,0.03c0.1,0,0.18-0.04,0.24-0.11c0.06-0.07,0.08-0.16,0.07-0.26
						c-0.01-0.05-0.03-0.1-0.05-0.15c-0.03-0.05-0.06-0.08-0.1-0.12c-0.04-0.03-0.08-0.06-0.13-0.08c-0.05-0.02-0.1-0.03-0.15-0.03
						c-0.1,0-0.18,0.04-0.25,0.11C-251.5,109.51-251.53,109.6-251.51,109.71"/>
				</g>
				<g id="g24" transform="translate(335.0151,36.5023)">
					<path id="path26" class="st1" d="M-257.5,106.42c0.03,0.18,0.08,0.34,0.17,0.49c0.08,0.15,0.19,0.28,0.32,0.39
						c0.13,0.11,0.27,0.19,0.43,0.25c0.16,0.06,0.33,0.09,0.51,0.09c0.17,0,0.32-0.03,0.45-0.08c0.13-0.05,0.25-0.12,0.34-0.22
						c0.09-0.09,0.16-0.2,0.21-0.33c0.05-0.13,0.06-0.27,0.05-0.43h-0.79c-0.01,0.09-0.05,0.17-0.12,0.23
						c-0.07,0.06-0.15,0.09-0.25,0.09c-0.14,0-0.26-0.05-0.36-0.14c-0.1-0.09-0.16-0.21-0.18-0.34c-0.02-0.13,0.01-0.24,0.08-0.33
						c0.07-0.09,0.17-0.14,0.31-0.14c0.1,0,0.2,0.03,0.28,0.08c0.09,0.06,0.15,0.13,0.19,0.22h0.79c-0.04-0.16-0.11-0.3-0.19-0.42
						c-0.09-0.13-0.19-0.24-0.31-0.33c-0.12-0.09-0.26-0.16-0.41-0.21c-0.15-0.05-0.31-0.07-0.47-0.07c-0.18,0-0.34,0.03-0.48,0.09
						s-0.26,0.14-0.35,0.25c-0.09,0.11-0.16,0.23-0.19,0.38C-257.53,106.08-257.53,106.24-257.5,106.42"/>
				</g>
				<g id="g28" transform="translate(355.3799,36.5023)">
					<path id="path30" class="st1" d="M-273.72,106.42c-0.02-0.13,0.01-0.24,0.08-0.33c0.07-0.09,0.18-0.13,0.31-0.13
						c0.07,0,0.13,0.01,0.19,0.04c0.06,0.02,0.11,0.06,0.16,0.1c0.05,0.04,0.08,0.09,0.12,0.15c0.03,0.06,0.05,0.12,0.06,0.18
						c0.01,0.07,0.01,0.13,0,0.19c-0.01,0.06-0.04,0.11-0.07,0.15c-0.03,0.04-0.07,0.07-0.13,0.1c-0.05,0.02-0.11,0.04-0.18,0.04
						c-0.14,0-0.26-0.05-0.35-0.14C-273.64,106.66-273.7,106.55-273.72,106.42 M-274.5,106.42c0.03,0.18,0.09,0.34,0.17,0.49
						c0.08,0.15,0.19,0.28,0.32,0.38c0.13,0.11,0.27,0.19,0.43,0.25c0.16,0.06,0.33,0.09,0.51,0.09s0.34-0.03,0.48-0.09
						c0.14-0.06,0.26-0.14,0.35-0.25c0.09-0.11,0.16-0.24,0.2-0.39c0.04-0.15,0.04-0.31,0.01-0.49c-0.03-0.18-0.08-0.34-0.17-0.49
						c-0.09-0.15-0.19-0.27-0.32-0.38c-0.13-0.11-0.27-0.19-0.43-0.25c-0.16-0.06-0.33-0.09-0.51-0.09c-0.18,0-0.34,0.03-0.48,0.09
						c-0.14,0.06-0.26,0.14-0.35,0.25c-0.09,0.11-0.16,0.23-0.19,0.38C-274.52,106.08-274.53,106.24-274.5,106.42"/>
				</g>
				<g id="g32" transform="translate(369.6108,42.2679)">
					<path id="path34" class="st1" d="M-285.06,101.83h0.76l-0.04-0.29c0.09,0.1,0.2,0.18,0.32,0.24c0.12,0.06,0.25,0.09,0.39,0.09
						c0.15,0,0.28-0.04,0.38-0.11c0.1-0.07,0.17-0.17,0.22-0.3c0.11,0.13,0.23,0.23,0.36,0.3c0.14,0.07,0.29,0.11,0.45,0.11
						c0.11,0,0.22-0.02,0.3-0.06c0.09-0.04,0.16-0.1,0.21-0.18c0.05-0.07,0.09-0.16,0.11-0.27c0.02-0.11,0.02-0.22,0-0.35
						l-0.25-1.53h-0.76l0.2,1.24c0.02,0.12,0,0.21-0.04,0.28c-0.04,0.07-0.11,0.11-0.19,0.11c-0.11,0-0.21-0.05-0.29-0.14
						s-0.13-0.2-0.15-0.33l-0.18-1.16h-0.76l0.2,1.24c0.02,0.12,0,0.21-0.04,0.28c-0.04,0.07-0.11,0.11-0.19,0.11
						c-0.11,0-0.21-0.05-0.29-0.14c-0.08-0.09-0.13-0.2-0.15-0.33l-0.18-1.16h-0.76L-285.06,101.83z"/>
				</g>
				<g id="g36" transform="translate(213.5527,70.2806)">
					<path id="path38" class="st2" d="M-160.74,79.51c-0.02-0.06-0.04-0.11-0.05-0.14c-0.17-0.56-0.69-0.97-1.31-0.97
						c-0.62,0-1.15,0.42-1.31,0.98c0,0,0,0,0,0c-0.07,0.17-0.2,0.58-0.2,1.39c0,0.74,0.2,1.17,0.27,1.31c0,0,0,0,0,0
						c0.21,0.47,0.69,0.8,1.24,0.8c0.54,0,1.01-0.31,1.23-0.77c0,0,0-0.01,0.01-0.01c0.03-0.05,0.07-0.14,0.12-0.29
						c0.08-0.23,0.15-0.57,0.15-1.04C-160.58,80.12-160.67,79.73-160.74,79.51 M-162.11,85.1c-2.44,0-4.42-1.98-4.42-4.42
						c0-2.44,1.98-4.42,4.42-4.42c2.44,0,4.42,1.98,4.42,4.42C-157.68,83.12-159.66,85.1-162.11,85.1"/>
				</g>
				<g id="g40" transform="translate(371.7002,70.2806)">
					<path id="path42" class="st2" d="M-286.73,79.51c-0.02-0.06-0.04-0.11-0.05-0.14c-0.17-0.56-0.69-0.97-1.31-0.97
						c-0.62,0-1.15,0.42-1.31,0.98c0,0,0,0,0,0c-0.07,0.17-0.2,0.58-0.2,1.39c0,0.74,0.2,1.17,0.27,1.31c0,0,0,0,0,0
						c0.21,0.47,0.69,0.8,1.24,0.8c0.54,0,1.01-0.31,1.23-0.77c0,0,0-0.01,0.01-0.01c0.03-0.05,0.07-0.14,0.12-0.29
						c0.08-0.23,0.15-0.57,0.15-1.04C-286.57,80.12-286.66,79.73-286.73,79.51 M-288.09,85.1c-2.44,0-4.42-1.98-4.42-4.42
						c0-2.44,1.98-4.42,4.42-4.42c2.44,0,4.42,1.98,4.42,4.42C-283.67,83.12-285.65,85.1-288.09,85.1"/>
				</g>
				<g id="g44" transform="translate(259.2891,70.8636)">
					<path id="path46" class="st2" d="M-197.17,79.04c-0.08-0.67-0.66-1.19-1.35-1.19c-0.73,0-1.32,0.57-1.36,1.28
						c0,0.03,0,0.06,0,0.08c0,0.03,0,0.06,0,0.08v1.59c0,0.03,0,0.06,0,0.08c0,0.03,0,0.06,0,0.08c0.04,0.71,0.64,1.28,1.36,1.28
						c0.66,0,1.22-0.47,1.34-1.1c0.07-0.23,0.15-0.56,0.15-1.01C-197.04,79.65-197.11,79.27-197.17,79.04 M-198.48,84.52
						c-1.9,0-3.52-1.2-4.15-2.88v-7.95c0.04-0.72,0.64-1.29,1.37-1.29c0.73,0,1.33,0.57,1.37,1.29v2.21
						c0.44-0.15,0.91-0.23,1.4-0.23c2.44,0,4.42,1.98,4.42,4.42C-194.06,82.54-196.04,84.52-198.48,84.52"/>
				</g>
				<g id="g48" transform="translate(312.4224,81.2005)">
					<path id="path50" class="st2" d="M-239.5,70.81c0.08,0.67,0.66,1.19,1.35,1.19c0.73,0,1.32-0.57,1.36-1.28
						c0-0.03,0-0.06,0-0.08c0-0.03,0-0.06,0-0.08v-1.59c0-0.03,0-0.06,0-0.08c0-0.03,0-0.06,0-0.08c-0.04-0.71-0.64-1.28-1.36-1.28
						c-0.66,0-1.22,0.47-1.34,1.1c-0.07,0.23-0.15,0.56-0.15,1.01C-239.63,70.21-239.57,70.58-239.5,70.81 M-238.19,65.34
						c1.9,0,3.52,1.2,4.15,2.88v7.95c-0.04,0.72-0.64,1.29-1.37,1.29c-0.73,0-1.33-0.57-1.37-1.29v-2.21
						c-0.44,0.15-0.91,0.23-1.4,0.23c-2.44,0-4.42-1.98-4.42-4.42C-242.62,67.32-240.63,65.34-238.19,65.34"/>
				</g>
				<g id="g52" transform="translate(178.7236,67.8529)">
					<path id="path54" class="st2" d="M-132.99,81.44h-3.23v8.05c-0.04,0.72-0.63,1.29-1.36,1.29c-0.72,0-1.31-0.56-1.36-1.27v-9.54
						c0.05-0.67,0.59-1.21,1.26-1.26h4.72c0.71,0.05,1.27,0.64,1.27,1.36C-131.7,80.81-132.27,81.41-132.99,81.44"/>
				</g>
				<g id="g56" transform="translate(293.2275,107.1624)">
					<path id="path58" class="st2" d="M-224.21,50.13c0-0.75-0.6-1.35-1.35-1.35c-0.75,0-1.35,0.6-1.35,1.35
						c0,0.75,0.6,1.35,1.35,1.35C-224.81,51.48-224.21,50.87-224.21,50.13"/>
				</g>
				<g id="g60" transform="translate(285.8594,96.8578)">
					<path id="path62" class="st2" d="M-218.34,58.34c-0.7,0-1.28-0.53-1.36-1.21v-6.2c0.08-0.68,0.66-1.21,1.36-1.21
						c0.7,0,1.28,0.52,1.36,1.2v6.22C-217.06,57.81-217.64,58.34-218.34,58.34"/>
				</g>
				<g id="g64" transform="translate(103.7334,42.5062)">
					<path id="path66" class="st1" d="M-73.25,101.64h-7.94c-2.47,0-4.47,2-4.47,4.47v7.94c0,2.47,2,4.47,4.47,4.47h7.94
						c2.47,0,4.47-2,4.47-4.47v-7.94C-68.78,103.64-70.78,101.64-73.25,101.64"/>
				</g>
				<g id="g68" transform="translate(101.3481,60.9183)">
					<path id="path70" class="st3" d="M-71.35,86.97c0-0.06,0-0.12-0.01-0.18c-0.08-0.63-0.6-1.12-1.24-1.16h-2
						c-2.1,0.17-3.76,1.88-3.85,3.99v4.75c0.05,1.57,1.1,2.88,2.53,3.33v-7.28c0-0.02,0-0.04,0-0.05s0-0.04,0-0.05
						c0.03-1.09,0.9-1.98,1.99-2.02c0.03,0,0.05,0,0.08,0c0.04,0,0.07,0,0.11,0h1.13C-71.91,88.26-71.35,87.68-71.35,86.97"/>
				</g>
				<g id="g72" transform="translate(96.584,76.0609)">
					<path id="path74" class="st3" d="M-67.55,74.9L-67.55,74.9l-0.02-0.02c-0.24-0.23-0.57-0.38-0.93-0.38
						c-0.36,0-0.69,0.15-0.93,0.38c-0.01,0-0.01,0.01-0.01,0.01v0c-0.03,0.03-0.05,0.08-0.05,0.13c0,0.11,0.09,0.19,0.19,0.19
						c0.03,0,0.07-0.01,0.1-0.03c0.01,0,0.01-0.01,0.02-0.01c0.2-0.12,0.44-0.19,0.69-0.19c0.17,0,0.32,0.03,0.47,0.09
						c0.08,0.03,0.15,0.07,0.22,0.11c0.01,0,0.01,0.01,0.01,0.01c0.03,0.02,0.06,0.03,0.1,0.03c0.05,0,0.1-0.02,0.14-0.05
						c0.04-0.03,0.06-0.08,0.06-0.14C-67.5,74.98-67.52,74.94-67.55,74.9 M-66.12,77.81c-0.01,0.03-0.02,0.05-0.02,0.08
						c-0.03,0.06-0.1,0.1-0.17,0.1c-0.04,0-0.08-0.01-0.11-0.03c-0.01-0.01-0.01-0.01-0.02-0.01c-0.08-0.06-0.17-0.11-0.26-0.15
						c-0.01-0.01-0.02-0.01-0.03-0.01c-0.16-0.07-0.33-0.1-0.51-0.1c-0.14,0-0.26,0.02-0.39,0.06c-0.04,0.02-0.08,0.03-0.12,0.04
						c-0.2,0.06-0.42,0.1-0.64,0.1c-0.11,0-0.21-0.01-0.32-0.02c-0.19-0.03-0.38-0.09-0.55-0.17c-0.3-0.14-0.57-0.35-0.77-0.61
						c-0.1-0.13-0.19-0.27-0.25-0.43c-0.12-0.26-0.18-0.55-0.18-0.85c0-0.1,0.01-0.2,0.02-0.29c0.14-1.01,1.01-1.78,2.05-1.78
						c0.08,0,0.16,0.01,0.23,0.01c0.28,0.04,0.53,0.14,0.76,0.29c0.55,0.34,0.92,0.93,0.97,1.6c-0.14-0.05-0.29-0.08-0.44-0.1
						c0.17,0.13,0.32,0.29,0.44,0.47c0.03,0.04,0.06,0.09,0.09,0.14c0.16,0.27,0.26,0.58,0.29,0.92c0.01,0.06,0.01,0.12,0.01,0.17
						C-66.04,77.43-66.07,77.63-66.12,77.81"/>
				</g>
			</g>
		</g>
	</g>
</g>
</svg>
